<svg width="65" height="48" fill="none" xmlns="http://www.w3.org/2000/svg"><path fill-rule="evenodd" clip-rule="evenodd" d="M50.386 30.83c-.436.441-1.061.69-1.931.69H25.829c-.87 0-1.496-.249-1.931-.69a2.372 2.372 0 01-.68-1.665c0-.624.244-1.223.68-1.665.435-.441 1.06-.69 1.93-.69h22.627c.87 0 1.495.249 1.93.69.436.442.68 1.04.68 1.665a2.37 2.37 0 01-.68 1.665z" fill="#3B323C"/><path d="M23.218 19.748c0-.624.244-1.223.68-1.665.435-.441 1.06-.69 1.93-.69h22.627c.87 0 1.495.249 1.93.69.436.442.68 1.04.68 1.665a2.37 2.37 0 01-.68 1.665c-.435.441-1.06.69-1.93.69H25.829c-.87 0-1.496-.249-1.931-.69a2.372 2.372 0 01-.68-1.665z" fill="#3B323C"/><path fill-rule="evenodd" clip-rule="evenodd" d="M23.218 19.748c0-.624.244-1.223.68-1.665.435-.441 1.06-.69 1.93-.69h22.627c.87 0 1.495.249 1.93.69.436.442.68 1.04.68 1.665a2.37 2.37 0 01-.68 1.665c-.435.441-1.06.69-1.93.69H25.829c-.87 0-1.496-.249-1.931-.69a2.372 2.372 0 01-.68-1.665zm2.61 11.771h22.627c.87 0 1.495-.248 1.93-.69.436-.44.68-1.04.68-1.664a2.37 2.37 0 00-.68-1.665c-.435-.441-1.06-.69-1.93-.69H25.829c-.87 0-1.496.249-1.931.69a2.372 2.372 0 00-.68 1.665c0 .624.244 1.223.68 1.665.435.441 1.06.69 1.93.69z" fill="#3B323C"/><path fill-rule="evenodd" clip-rule="evenodd" d="M23.218 19.748c0-.624.244-1.223.68-1.665.435-.441 1.06-.69 1.93-.69h22.627c.87 0 1.495.249 1.93.69.436.442.68 1.04.68 1.665a2.37 2.37 0 01-.68 1.665c-.435.441-1.06.69-1.93.69H25.829c-.87 0-1.496-.249-1.931-.69a2.372 2.372 0 01-.68-1.665zm2.61 11.771h22.627c.87 0 1.495-.248 1.93-.69.436-.44.68-1.04.68-1.664a2.37 2.37 0 00-.68-1.665c-.435-.441-1.06-.69-1.93-.69H25.829c-.87 0-1.496.249-1.931.69a2.372 2.372 0 00-.68 1.665c0 .624.244 1.223.68 1.665.435.441 1.06.69 1.93.69z" fill="#3B323C"/><path fill-rule="evenodd" clip-rule="evenodd" d="M23.218 19.748c0-.624.244-1.223.68-1.665.435-.441 1.06-.69 1.93-.69h22.627c.87 0 1.495.249 1.93.69.436.442.68 1.04.68 1.665a2.37 2.37 0 01-.68 1.665c-.435.441-1.06.69-1.93.69H25.829c-.87 0-1.496-.249-1.931-.69a2.372 2.372 0 01-.68-1.665zm2.61 11.771h22.627c.87 0 1.495-.248 1.93-.69.436-.44.68-1.04.68-1.664a2.37 2.37 0 00-.68-1.665c-.435-.441-1.06-.69-1.93-.69H25.829c-.87 0-1.496.249-1.931.69a2.372 2.372 0 00-.68 1.665c0 .624.244 1.223.68 1.665.435.441 1.06.69 1.93.69z" fill="#3B323C"/><path fill-rule="evenodd" clip-rule="evenodd" d="M23.218 19.748c0-.624.244-1.223.68-1.665.435-.441 1.06-.69 1.93-.69h22.627c.87 0 1.495.249 1.93.69.436.442.68 1.04.68 1.665a2.37 2.37 0 01-.68 1.665c-.435.441-1.06.69-1.93.69H25.829c-.87 0-1.496-.249-1.931-.69a2.372 2.372 0 01-.68-1.665zm2.61 11.771h22.627c.87 0 1.495-.248 1.93-.69.436-.44.68-1.04.68-1.664a2.37 2.37 0 00-.68-1.665c-.435-.441-1.06-.69-1.93-.69H25.829c-.87 0-1.496.249-1.931.69a2.372 2.372 0 00-.68 1.665c0 .624.244 1.223.68 1.665.435.441 1.06.69 1.93.69z" fill="#3B323C"/><path fill-rule="evenodd" clip-rule="evenodd" d="M23.218 19.748c0-.624.244-1.223.68-1.665.435-.441 1.06-.69 1.93-.69h22.627c.87 0 1.495.249 1.93.69.436.442.68 1.04.68 1.665a2.37 2.37 0 01-.68 1.665c-.435.441-1.06.69-1.93.69H25.829c-.87 0-1.496-.249-1.931-.69a2.372 2.372 0 01-.68-1.665zm2.61 11.771h22.627c.87 0 1.495-.248 1.93-.69.436-.44.68-1.04.68-1.664a2.37 2.37 0 00-.68-1.665c-.435-.441-1.06-.69-1.93-.69H25.829c-.87 0-1.496.249-1.931.69a2.372 2.372 0 00-.68 1.665c0 .624.244 1.223.68 1.665.435.441 1.06.69 1.93.69z" fill="#3B323C"/><path fill-rule="evenodd" clip-rule="evenodd" d="M.012 12.652a2.32 2.32 0 114.641 0v27.363a3.57 3.57 0 003.57 3.57c.592 0 1.071-.48 1.071-1.071V24.456c0-11.098 0-16.646 3.448-20.094C16.19.914 21.739.914 32.837.914h8.61c11.097 0 16.646 0 20.094 3.448 3.448 3.447 3.448 8.997 3.448 20.095 0 11.098 0 16.647-3.448 20.094C58.094 48 52.545 48 41.447 48H16.079c-6.79 0-10.184 0-12.54-1.768a8.827 8.827 0 01-1.76-1.76C.013 42.116.013 38.72.013 31.932v-19.28zm13.923 6.704c0-6.474 0-9.711 2.012-11.722 2.01-2.011 5.248-2.011 11.722-2.011h18.946c6.474 0 9.71 0 11.722 2.01 2.01 2.012 2.01 5.249 2.01 11.723v10.201c0 6.474 0 9.711-2.01 11.722-2.012 2.011-5.248 2.011-11.722 2.011H13.279c.543-.588.658-1.552.656-2.354v-21.58z" fill="#3B323C"/></svg>