<svg width="59" height="49" fill="none" xmlns="http://www.w3.org/2000/svg"><path d="M2.822 24.456c0-10.154 0-15.233 3.156-18.386 3.154-3.156 8.232-3.156 18.387-3.156h10.771c10.155 0 15.233 0 18.386 3.156 3.157 3.153 3.157 8.232 3.157 18.386 0 10.155 0 15.234-3.157 18.387-3.153 3.156-8.231 3.156-18.386 3.156H24.365c-10.155 0-15.233 0-18.387-3.156-3.156-3.153-3.156-8.232-3.156-18.387z" stroke="#3B333C" stroke-width="4.4"/><path d="M13.594 13.685l5.813 4.848c4.947 4.12 7.42 6.18 10.344 6.18 2.924 0 5.399-2.06 10.343-6.183l5.813-4.845" stroke="#3B333C" stroke-width="4.4" stroke-linecap="round"/></svg>