<svg width="211" height="76" viewBox="0 0 211 76" fill="none" xmlns="http://www.w3.org/2000/svg">
<path d="M5.24322 0H5.66029L6.19415 0.0206082H6.88109L9.95368 0H10.7633C11.0171 0.0412165 11.2706 0.0412165 11.5238 0H11.5484C11.8022 0.0412165 12.0557 0.0412165 12.3089 0H12.3334C12.5873 0.0412165 12.8408 0.0412165 13.094 0H13.1185C13.3724 0.0412165 13.6259 0.0412165 13.8791 0H13.9036C14.1574 0.0412165 14.4109 0.0412165 14.6641 0H17.0439C17.2323 0.0412165 17.4204 0.0412165 17.6082 0H20.1842C20.3726 0.0412165 20.5607 0.0412165 20.7485 0H39.1241L39.9033 0.0206082L42.8287 0H42.9514L44.1231 0.0206082L44.657 0.0471045C44.6698 0.0475754 44.682 0.0539145 44.6908 0.0647501C44.6996 0.0755858 44.7044 0.0900466 44.7041 0.105004L44.6884 2.32088C44.6881 2.34203 44.6828 2.36274 44.6728 2.38121C44.6629 2.39967 44.6487 2.41534 44.6314 2.42686C44.322 2.6336 44.0256 2.85342 43.7423 3.08633C43.3387 3.41868 43.1352 3.58616 43.1319 3.58878C42.1702 4.34965 41.2049 5.10626 40.236 5.85863C40.2105 5.87825 40.1967 5.87204 40.1948 5.83998C40.1438 4.98883 40.129 4.11216 40.1506 3.20998C40.1509 3.19847 40.1488 3.18703 40.1446 3.17633C40.1404 3.16562 40.1341 3.15587 40.126 3.14764C40.118 3.13941 40.1084 3.13287 40.0978 3.12841C40.0872 3.12395 40.0758 3.12165 40.0643 3.12166L8.18824 3.09123C8.15458 3.09118 8.12215 3.10402 8.09755 3.12717C8.07294 3.15032 8.058 3.18203 8.05576 3.21587C8.0165 3.85178 8.00178 4.49619 8.0116 5.14911C8.02664 6.19326 8.03417 6.71861 8.03417 6.72515C8.03286 8.25343 8.02795 9.78171 8.01945 11.31C7.98543 17.7705 7.9851 24.231 8.01846 30.6915C8.02632 32.178 8.04921 33.6402 8.08716 35.0782C8.08793 35.1058 8.09953 35.132 8.11951 35.1512C8.13949 35.1705 8.16626 35.1812 8.19413 35.1812H40.078C40.0986 35.1812 40.1183 35.173 40.1328 35.1585C40.1474 35.144 40.1555 35.1242 40.1555 35.1037C40.1477 30.6065 40.146 26.1509 40.1506 21.7368C40.1513 21.5575 40.2193 21.4129 40.3547 21.303C41.764 20.1588 43.1859 19.0292 44.6206 17.9144C44.6651 17.8804 44.6874 17.8912 44.6874 17.9468L44.6628 39.6218C44.6629 39.6351 44.6578 39.6479 44.6487 39.6576C44.6395 39.6672 44.6271 39.673 44.6138 39.6738C43.7973 39.7268 42.9795 39.7408 42.1604 39.716L41.6943 39.6502L41.2772 39.6179C40.9946 39.5878 40.6429 39.5727 40.2223 39.5727C33.4837 39.5681 26.7451 39.5776 20.0066 39.6012C15.2235 39.5966 10.4401 39.5953 5.65637 39.5972C5.45945 39.5972 5.21378 39.6129 4.91938 39.6444C4.6747 39.6705 4.42903 39.6862 4.18239 39.6915L3.57494 39.6728C3.56171 39.6723 3.5492 39.6661 3.54005 39.6555C3.5309 39.6448 3.52581 39.6307 3.52587 39.6159C3.51475 19.9883 3.51279 7.23284 3.51998 1.34935C3.52064 0.821385 3.50788 0.406604 3.48171 0.105004C3.48105 0.0974016 3.48162 0.0897669 3.48339 0.082539C3.48516 0.075311 3.48809 0.0686323 3.49201 0.0628868C3.49593 0.0571413 3.50077 0.0524424 3.50624 0.0490603C3.51172 0.0456781 3.51772 0.0436794 3.52391 0.0431792L3.83892 0.0206082L5.24322 0Z" fill="#C8061B"/>
<path d="M23.2645 22.5092C27.4876 19.1563 31.7034 15.7945 35.9121 12.4239C40.7442 8.55287 45.5908 4.68703 50.4517 0.826417C50.4584 0.820953 50.4661 0.81689 50.4744 0.81447C50.4828 0.81205 50.4915 0.811322 50.5001 0.812329C50.5087 0.813335 50.517 0.816056 50.5245 0.82033C50.5321 0.824604 50.5387 0.830344 50.5439 0.837212C51.8929 2.59382 53.2645 4.32426 54.6587 6.02852C54.6672 6.03865 54.6714 6.05167 54.6705 6.06484C54.6696 6.07802 54.6636 6.09033 54.6538 6.09918C54.3044 6.42172 53.7398 6.89309 52.96 7.5133C42.0579 16.1858 31.1745 24.8707 20.3097 33.568C20.2985 33.577 20.2853 33.5832 20.2713 33.5862C20.2572 33.5891 20.2427 33.5887 20.2288 33.585C20.215 33.5813 20.2022 33.5743 20.1915 33.5647C20.1808 33.5551 20.1726 33.5431 20.1674 33.5297C17.7801 27.3741 15.4098 21.2207 13.0566 15.0697C12.8767 14.5999 12.7501 14.2355 12.6768 13.9764C12.6732 13.9635 12.6745 13.9498 12.6805 13.9378C12.6865 13.9258 12.6967 13.9165 12.7092 13.9117L18.8485 11.5663C18.8779 11.5551 18.9105 11.556 18.9392 11.5689C18.9679 11.5818 18.9903 11.6056 19.0015 11.6349C20.2335 14.8773 21.4677 18.1138 22.7042 21.3444C22.905 21.8691 23.0712 22.2534 23.2027 22.4974C23.2055 22.5027 23.2094 22.5073 23.2142 22.5108C23.219 22.5143 23.2246 22.5167 23.2305 22.5179C23.2364 22.519 23.2425 22.5188 23.2484 22.5173C23.2543 22.5158 23.2598 22.5131 23.2645 22.5092Z" fill="#C8061B"/>
<path d="M92.4076 39.7162L91.4057 39.6603C90.9961 39.587 90.5954 39.5543 90.2035 39.5621C89.5722 39.5739 89.2542 39.5798 89.2497 39.5798C88.6072 39.5674 87.9647 39.566 87.3223 39.5759C87.2673 39.5765 86.8015 39.5768 85.9249 39.5768C85.5088 39.5768 85.0426 39.5899 84.5264 39.6161C84.482 39.6181 84.4492 39.6288 84.4283 39.6485C84.4143 39.6613 84.4003 39.6718 84.3875 39.6791C84.3747 39.6865 84.3635 39.6904 84.3547 39.6907L83.6 39.6995L83.285 39.6769C83.2723 39.676 83.2593 39.6702 83.2473 39.6602C83.2354 39.6502 83.225 39.6363 83.2173 39.62C81.2546 35.4329 79.3191 31.2004 77.4107 26.9224C77.4022 26.9029 77.3891 26.8855 77.3726 26.8717C77.3561 26.8579 77.3366 26.8481 77.3155 26.8429C77.165 26.8069 77.028 26.8105 76.9043 26.8537C76.8911 26.858 76.8795 26.8667 76.871 26.8787C76.8626 26.8906 76.8578 26.9052 76.8572 26.9204C76.8376 27.2999 76.8281 27.5675 76.8288 27.7232C76.8379 31.6996 76.8317 35.6665 76.8101 39.6239C76.8101 39.6429 76.8026 39.6612 76.7891 39.6746C76.7757 39.688 76.7575 39.6956 76.7385 39.6956L75.3322 39.6995C75.2504 39.6688 75.1696 39.6573 75.0898 39.6652L73.0506 39.5876L69.2234 39.6014L67.7965 39.5729L67.6817 39.1313L67.6777 9.4947C67.6777 9.4816 67.6829 9.46902 67.692 9.45966C67.7012 9.4503 67.7137 9.44491 67.7268 9.44465C70.7343 9.40802 73.7588 9.40638 76.8003 9.43975C76.8129 9.44001 76.8249 9.44508 76.8337 9.45389C76.8425 9.46269 76.8474 9.47453 76.8474 9.48685C76.8546 13.3462 76.8579 17.2169 76.8572 21.0991C76.8572 21.2313 76.9334 21.2793 77.0859 21.2434C77.1912 21.2192 77.2661 21.158 77.3106 21.0599L82.5942 9.50059C82.605 9.47689 82.6224 9.4568 82.6441 9.44271C82.6659 9.42862 82.6911 9.42112 82.7168 9.4211L92.5244 9.45152C92.5333 9.45165 92.5421 9.45407 92.5498 9.45855C92.5575 9.46303 92.5639 9.46942 92.5685 9.47711C92.573 9.4848 92.5755 9.49353 92.5757 9.50245C92.5759 9.51138 92.5738 9.5202 92.5695 9.52807L85.2291 23.1354C85.2107 23.1695 85.2011 23.2077 85.2011 23.2465C85.2011 23.2854 85.2107 23.3238 85.2291 23.3582L93.9944 39.6465C93.9973 39.6517 93.9988 39.6575 93.9988 39.6635C93.9987 39.6694 93.9971 39.6752 93.9942 39.6804C93.9912 39.6855 93.987 39.6898 93.9819 39.6928C93.9767 39.6958 93.9709 39.6974 93.965 39.6975L92.4076 39.7162Z" fill="#C8061B"/>
<path d="M120.078 39.7158L118.803 39.6618C118.201 39.6003 117.594 39.5872 116.982 39.6226C116.285 39.5644 115.584 39.5572 114.877 39.601L113.787 39.599L112.129 39.601H111.688L111.543 39.6216C111.541 32.3433 111.546 25.065 111.559 17.7867C111.559 17.5394 111.537 17.2947 111.491 17.0526C111.49 17.0416 111.484 17.0318 111.475 17.0251C111.466 17.0183 111.455 17.0152 111.444 17.0163C111.216 17.0392 110.992 17.0556 110.772 17.0654C110.602 17.0726 110.378 17.0674 110.101 17.0497C109.706 17.0248 109.311 17.0157 108.915 17.0222C108.764 16.9843 108.617 16.9924 108.474 17.0467C107.51 17.101 106.504 17.1181 105.457 17.0978C105.447 17.0975 105.438 17.0992 105.429 17.1027C105.42 17.1063 105.412 17.1116 105.405 17.1183C105.398 17.1251 105.392 17.1332 105.388 17.1421C105.385 17.1511 105.383 17.1607 105.383 17.1704L105.358 39.6157C105.358 39.6352 105.35 39.6539 105.337 39.6678C105.323 39.6816 105.305 39.6893 105.285 39.6893L103.346 39.6991L102.733 39.6501L101.997 39.601C100.999 39.5558 100.002 39.5558 99.0039 39.601C98.1436 39.5722 97.2558 39.598 96.3405 39.6785C96.3235 39.68 96.3064 39.678 96.2902 39.6725C96.2741 39.667 96.2592 39.6582 96.2467 39.6466C96.2341 39.6351 96.2241 39.6211 96.2173 39.6054C96.2105 39.5898 96.207 39.5729 96.207 39.5558V9.50609C96.2071 9.49206 96.2122 9.47852 96.2214 9.4679C96.2305 9.45729 96.2432 9.4503 96.2571 9.44819C96.452 9.42137 96.6398 9.40796 96.8204 9.40796C104.753 9.42431 112.681 9.43674 120.604 9.44525C120.612 9.44525 120.621 9.44687 120.628 9.45003C120.636 9.45319 120.643 9.45781 120.649 9.46365C120.654 9.46948 120.659 9.4764 120.662 9.48402C120.665 9.49164 120.667 9.49981 120.667 9.50806V39.6393C120.667 39.6543 120.661 39.6687 120.649 39.6795C120.637 39.6903 120.622 39.6966 120.605 39.6972L120.078 39.7158Z" fill="#C8061B"/>
<path d="M131.071 39.7241L130.58 39.6505L130.286 39.5847L124.586 39.5631L124.498 37.9793C124.497 37.9531 124.488 37.922 124.471 37.886C124.443 37.8239 124.427 37.7401 124.422 37.6348C124.41 37.3371 124.425 37.0659 124.465 36.8213C124.514 36.5282 124.539 36.3113 124.54 36.1706C124.558 28.4501 124.552 20.7295 124.523 13.0089C124.522 12.8015 124.5 12.2752 124.457 11.43C124.423 10.7698 124.436 10.1032 124.497 9.42997C126.133 9.45156 127.769 9.4532 129.402 9.43488C130.2 9.42572 130.854 9.42114 131.365 9.42114C134.325 9.42114 137.286 9.42212 140.246 9.42409C140.65 9.42409 141.054 9.43455 141.458 9.45549C141.937 9.48035 142.336 9.53465 142.654 9.61839C143.43 9.82186 144.191 10.1876 144.938 10.7155C145.631 11.2056 146.157 11.7361 146.516 12.3073C146.97 13.0295 147.35 13.7862 147.655 14.5771C147.881 15.1627 148.063 15.7904 148.202 16.4603C148.552 18.1528 148.623 19.8577 148.415 21.5751C148.332 22.2679 148.205 22.9094 148.036 23.4995C147.623 24.9375 146.958 26.2411 146.042 27.4102C145.189 28.5001 144.066 29.2015 142.675 29.5142C141.418 29.7961 140.052 29.9623 138.578 30.0127C138.245 30.0245 137.591 30.0362 136.615 30.048C135.647 30.0598 134.664 30.0529 133.666 30.0274C133.657 30.0272 133.648 30.0287 133.64 30.0319C133.632 30.0352 133.624 30.04 133.618 30.0463C133.611 30.0525 133.606 30.0599 133.603 30.0682C133.599 30.0764 133.598 30.0852 133.598 30.0941L133.592 39.6407C133.592 39.6539 133.586 39.6667 133.577 39.6761C133.568 39.6854 133.556 39.6907 133.543 39.6907L131.071 39.7241ZM138.657 21.8165C139.079 21.386 139.378 20.9016 139.554 20.3631C139.732 19.8221 139.776 19.2725 139.685 18.7145C139.574 18.0308 139.266 17.4237 138.761 16.8931C138.451 16.5666 138.096 16.2994 137.696 16.0913C136.92 15.689 136.094 15.4639 135.218 15.4162C134.751 15.3913 134.25 15.3992 133.716 15.4397C133.691 15.4417 133.667 15.4531 133.65 15.4717C133.633 15.4902 133.623 15.5146 133.623 15.5398L133.598 23.1099C133.598 23.124 133.603 23.1375 133.612 23.1481C133.621 23.1587 133.633 23.1657 133.647 23.1678C134.615 23.3229 135.574 23.283 136.524 23.0481C137.342 22.8453 138.053 22.4348 138.657 21.8165Z" fill="#C8061B"/>
<path d="M169.322 39.7091C169.257 39.6614 169.191 39.6499 169.124 39.6748L167.921 39.5796L162.156 39.6012L161.939 39.5973C161.904 39.5456 161.887 39.4474 161.886 39.3029C161.874 37.4448 161.874 36.21 161.886 35.5983C161.889 35.4426 161.816 35.3866 161.665 35.4305C161.182 35.4154 160.7 35.4216 160.218 35.4491C159.562 35.4858 158.907 35.491 158.253 35.4648C157.406 35.4308 156.755 35.3722 156.299 35.2892C154.818 35.0177 153.556 34.3039 152.512 33.1479C152.16 32.7579 151.84 32.3435 151.551 31.9045C150.275 29.9641 149.535 27.8499 149.331 25.5621C149.273 24.9131 149.25 24.2598 149.262 23.6023C149.29 22.0616 149.56 20.5579 150.072 19.0911C150.663 17.3947 151.586 15.9642 152.839 14.7997C153.705 13.9956 154.715 13.4683 155.869 13.2177C156.324 13.1196 156.969 13.066 157.805 13.0568C158.454 13.0496 159.103 13.0548 159.752 13.0725C160.382 13.0895 161.011 13.0813 161.641 13.048C161.701 13.0617 161.759 13.0604 161.815 13.044C161.829 13.0404 161.841 13.032 161.849 13.0201C161.858 13.0082 161.862 12.9936 161.863 12.9783C161.89 11.7941 161.87 10.607 161.802 9.41699L171.557 9.45134C171.575 9.45134 171.593 9.45868 171.606 9.47175C171.619 9.48481 171.626 9.50254 171.626 9.52101V12.9989C171.626 13.0095 171.628 13.02 171.632 13.0298C171.636 13.0396 171.642 13.0484 171.65 13.0558C171.657 13.0632 171.666 13.069 171.676 13.0729C171.686 13.0768 171.696 13.0787 171.706 13.0784C173.016 13.0503 174.305 13.044 175.576 13.0597C176.442 13.0702 177.093 13.1219 177.529 13.2148C178.694 13.4627 179.73 13.9953 180.636 14.8124C181.192 15.3136 181.68 15.8971 182.098 16.5631C182.934 17.8932 183.524 19.4133 183.868 21.1235C184.137 22.4594 184.235 23.7449 184.161 24.9801C184.121 25.6259 184.04 26.2745 183.915 26.9261C183.647 28.3334 183.155 29.6929 182.439 31.0046C181.906 31.9807 181.255 32.8315 180.486 33.5571C179.973 34.0419 179.446 34.4253 178.905 34.7072C178.273 35.0356 177.613 35.2509 176.925 35.3529C176.305 35.4445 175.553 35.4858 174.668 35.4766C173.728 35.4668 172.762 35.4494 171.769 35.4246C171.754 35.4242 171.739 35.4268 171.724 35.4324C171.71 35.4379 171.697 35.4462 171.686 35.4568C171.675 35.4674 171.666 35.4801 171.66 35.4941C171.654 35.5081 171.651 35.5232 171.65 35.5384L171.626 39.6179C171.626 39.6386 171.617 39.6584 171.603 39.6731C171.588 39.6878 171.568 39.6961 171.547 39.6964L169.322 39.7091ZM161.809 27.5758C161.802 27.142 161.813 26.7086 161.842 26.2755C161.93 24.9409 161.914 23.6079 161.792 22.2765L161.765 19.7505C161.765 19.7349 161.762 19.7194 161.755 19.7052C161.749 19.6909 161.739 19.6782 161.727 19.6679C161.715 19.6575 161.702 19.6497 161.686 19.645C161.671 19.6404 161.655 19.6389 161.64 19.6406C161.001 19.71 160.421 19.8677 159.9 20.1136C159.559 20.2752 159.307 20.4584 159.144 20.6632C158.753 21.1571 158.5 21.7675 158.387 22.4944C158.22 23.5582 158.245 24.6118 158.463 25.6553C158.517 25.9131 158.592 26.1571 158.688 26.3874C158.787 26.6249 158.898 26.8565 159.022 27.0822C159.194 27.3969 159.455 27.6576 159.807 27.8643C160.365 28.1921 160.997 28.3959 161.703 28.4757C161.713 28.4768 161.724 28.4759 161.734 28.473C161.744 28.47 161.754 28.4652 161.762 28.4588C161.77 28.4523 161.776 28.4444 161.781 28.4355C161.785 28.4266 161.788 28.4169 161.788 28.407L161.809 27.5758ZM175.067 25.1283C175.171 23.9978 175.128 22.9327 174.938 21.9331C174.823 21.3266 174.535 20.8356 174.075 20.4601C173.797 20.233 173.432 20.0463 172.982 19.8997C172.594 19.7728 172.188 19.6891 171.764 19.6485C171.75 19.647 171.735 19.6485 171.722 19.6531C171.708 19.6576 171.695 19.665 171.684 19.6749C171.674 19.6847 171.665 19.6967 171.659 19.71C171.653 19.7234 171.65 19.7379 171.65 19.7525L171.633 28.4286C171.633 28.4348 171.634 28.441 171.637 28.4467C171.639 28.4524 171.643 28.4575 171.647 28.4617C171.652 28.4659 171.657 28.469 171.663 28.4709C171.669 28.4728 171.675 28.4734 171.681 28.4727C172.181 28.425 172.688 28.2915 173.202 28.0724C173.607 27.9003 173.948 27.6651 174.226 27.3668C174.481 27.0933 174.679 26.7459 174.821 26.3246C174.945 25.9569 175.027 25.5581 175.067 25.1283Z" fill="#C8061B"/>
<path d="M14.8786 70.121L14.8826 70.2398L14.8119 71.4939C14.8054 71.6091 14.8521 71.7052 14.9522 71.7824C15.1524 71.9375 15.2368 72.1269 15.2054 72.3506C15.1773 72.5489 15.1449 72.7464 15.1083 72.9434C15.1017 72.9754 15.1001 73.0052 15.1034 73.0327C15.1184 73.1773 15.1613 73.172 15.2319 73.017C15.5178 72.3941 15.7978 71.7684 16.0719 71.1397C16.8086 69.4504 17.5976 67.7864 18.4389 66.1476C19.1422 64.7783 19.8112 63.3926 20.4458 61.9906C20.8213 61.1623 21.1053 60.5732 21.2976 60.2232C21.7235 59.4499 22.1579 58.796 22.6008 58.2615C23.1412 57.6085 23.6604 57.0809 24.1582 56.6786C24.2577 56.5981 24.3852 56.5408 24.5409 56.5068C24.7202 56.4669 24.8481 56.4293 24.9247 56.394C25.047 56.337 25.1677 56.2769 25.2868 56.2134C25.5295 56.0845 25.7886 56.0377 26.064 56.0731C26.5298 56.1333 26.8167 56.1859 26.9246 56.2311C27.0705 56.2926 27.1876 56.4071 27.276 56.5745C27.3296 56.6759 27.3698 56.8284 27.3967 57.0318C27.4758 57.6337 27.5619 58.1048 27.6548 58.445C28.1382 60.2206 28.451 62.0259 28.5929 63.861C28.6191 64.1999 28.6996 64.739 28.8343 65.4783C28.8998 65.8368 28.9534 66.2002 28.9953 66.5686C29.0234 66.8119 29.0532 67.055 29.0846 67.2977C29.1166 67.5509 29.1369 67.7952 29.1454 68.0308C29.1991 69.6166 29.2357 70.5901 29.2553 70.9512C29.2599 71.0311 29.2939 71.1455 29.3574 71.2947L29.3819 71.5155C29.3407 71.7105 29.3158 71.9071 29.3073 72.1053C29.2975 72.3395 29.2946 72.4694 29.2985 72.4949C29.3142 72.5989 29.3636 72.684 29.4467 72.75C29.5684 72.8456 29.6377 72.9064 29.6547 72.9326C29.7967 73.1478 29.797 73.3752 29.6557 73.6146C29.6471 73.6288 29.6356 73.6405 29.6225 73.6484C29.6094 73.6564 29.5951 73.6603 29.5811 73.6597C29.5066 73.6565 29.4581 73.612 29.4359 73.5263C29.4287 73.4968 29.4179 73.4952 29.4035 73.5214C29.1752 73.9519 29.0358 74.4121 28.9855 74.9021C28.9834 74.9218 28.9743 74.94 28.9599 74.9535C28.9455 74.967 28.9267 74.9749 28.9069 74.9757C27.9537 75.0143 26.96 75.0127 25.9256 74.9708C25.8991 74.9699 25.874 74.9589 25.8552 74.9401C25.8365 74.9214 25.8255 74.8962 25.8245 74.8697C25.7846 73.802 25.6688 72.7821 25.4771 71.8099C25.2756 70.7906 25.1216 69.7651 25.0149 68.7334C24.9881 68.475 24.9564 67.9074 24.9197 67.0308C24.8962 66.4622 24.8488 65.8957 24.7775 65.3311C24.663 64.4197 24.5959 63.8133 24.5763 63.5117C24.5364 62.8869 24.5046 62.2228 24.4811 61.5195C24.4745 61.3422 24.4235 61.3282 24.328 61.4773C23.8955 62.1473 23.4844 62.8911 23.0944 63.7089C22.4939 64.967 21.9073 66.2316 21.3349 67.5028C21.2381 67.7167 21.0464 68.1963 20.7598 68.9414C20.4975 69.6218 20.1746 70.3019 19.7912 70.9817C19.3948 71.6843 19.0536 72.4465 18.7677 73.2682C18.6323 73.6581 18.5351 73.9267 18.4762 74.0739C18.3729 74.3336 18.2639 74.5979 18.1495 74.8668C18.1423 74.884 18.1308 74.899 18.116 74.9107C18.1013 74.9224 18.0838 74.9302 18.0651 74.9335C17.4219 75.0428 16.7841 75.0107 16.1514 74.8374C15.948 74.7811 15.8119 74.6607 15.7432 74.4762C15.7033 74.3689 15.6186 74.3212 15.489 74.333L14.9002 74.3859C14.8695 74.3888 14.8407 74.4016 14.8187 74.4224C14.7967 74.4431 14.7829 74.4704 14.7795 74.4998L14.7344 74.9198C14.7327 74.9335 14.726 74.9462 14.7154 74.9555C14.7047 74.9649 14.691 74.9703 14.6765 74.9708C13.7357 75.0147 12.7256 75.0127 11.6461 74.9649C11.6093 74.9635 11.5737 74.9508 11.5443 74.9286C11.5148 74.9063 11.4928 74.8755 11.4812 74.8403C11.2921 74.277 11.1374 73.6846 11.017 73.0631C10.8659 72.2787 10.7109 71.4913 10.5519 70.701C10.5283 70.5826 10.4564 70.5168 10.336 70.5037C8.65854 70.3291 6.9088 70.2496 5.08677 70.2653C4.97424 70.2666 4.8905 70.3166 4.83555 70.4154C4.47049 71.0723 4.15253 71.7805 3.88168 72.54C3.80317 72.7599 3.6805 73.0379 3.51368 73.3742C3.4319 73.5397 3.34456 73.6532 3.25166 73.7147C3.13717 73.7906 2.99749 73.8426 2.83262 73.8707C2.68738 73.8949 2.55817 73.9708 2.44499 74.0984C2.37499 74.1776 2.33672 74.2204 2.33017 74.227C2.16073 74.4023 2.00273 74.5878 1.85619 74.7834C1.81431 74.8396 1.78455 74.8429 1.76688 74.7932C1.76099 74.7742 1.76165 74.7526 1.76885 74.7284C1.80483 74.6139 1.83558 74.4988 1.86109 74.383C1.95596 73.9597 1.83231 73.6627 1.49014 73.4919C1.48622 73.49 1.39299 73.4622 1.21046 73.4085C1.03055 73.3549 0.882692 73.2309 0.766893 73.0366C0.758509 73.0224 0.745949 73.0105 0.730354 73.002C0.714758 72.9934 0.696621 72.9884 0.67759 72.9875L0.0956532 72.961C0.0809841 72.9604 0.0666656 72.9564 0.053693 72.9493C0.0407204 72.9422 0.0294049 72.9322 0.0205329 72.92C0.011661 72.9078 0.00544553 72.8936 0.00231852 72.8785C-0.000808492 72.8634 -0.000772011 72.8477 0.00242543 72.8325C0.102523 72.3529 0.238275 71.8982 0.409683 71.4684C0.700816 70.7396 1.02041 70.0235 1.36846 69.3202C2.23989 67.5591 2.97328 66.1319 3.56863 65.0386C4.30857 63.6798 4.92681 62.4564 5.42337 61.3684C6.09592 59.8957 6.83324 58.5575 7.63532 57.3537C8.18161 56.5333 8.85285 55.7757 9.64904 55.0809C9.83615 54.9174 10.0206 54.7934 10.2025 54.709C10.406 54.6148 10.617 54.5386 10.8355 54.4803C10.9402 54.4529 11.0439 54.4081 11.1466 54.3459C11.282 54.2648 11.3893 54.2226 11.4685 54.2193C11.95 54.2016 12.3998 54.2589 12.8178 54.391C13.0579 54.4669 13.1982 54.6397 13.2388 54.9092C13.3585 55.7047 13.4998 56.4964 13.6627 57.284C13.8296 58.0901 13.9464 58.7332 14.0131 59.2134C14.2754 61.108 14.4704 63.0095 14.598 64.9179C14.6339 65.4557 14.6631 66.1093 14.6853 66.8787C14.7056 67.5931 14.7268 68.3075 14.7491 69.0219C14.7504 69.0684 14.7687 69.2077 14.804 69.44C14.8256 69.5819 14.8237 69.7255 14.7982 69.8708C14.7798 69.9722 14.8067 70.0556 14.8786 70.121ZM7.12797 65.915C7.06255 65.8967 6.98698 65.9048 6.90128 65.9395C6.83455 65.9663 6.78057 66.0138 6.73936 66.0818C6.65889 66.2146 6.59314 66.3726 6.54211 66.5558C6.53814 66.5699 6.53773 66.5847 6.54092 66.599C6.54411 66.6133 6.55079 66.6266 6.56039 66.6377C6.56998 66.6489 6.58219 66.6575 6.59594 66.6629C6.60969 66.6683 6.62457 66.6703 6.63926 66.6686C7.34583 66.5882 8.01838 66.6006 8.6569 66.7059C9.05271 66.772 9.4495 66.8332 9.84727 66.8894C10.0416 66.9169 10.1119 66.8571 10.0583 66.7099C10.0494 66.6857 10.0283 66.6601 9.9984 66.6372C9.89569 66.562 9.83484 66.4348 9.81587 66.2555C9.81479 66.2454 9.81579 66.2352 9.8188 66.2255C9.82182 66.2157 9.82679 66.2068 9.8334 66.199C9.84002 66.1913 9.84815 66.185 9.85728 66.1806C9.86642 66.1761 9.87637 66.1735 9.88653 66.1731C9.95391 66.1698 10.0105 66.1453 10.0563 66.0995C10.0664 66.0896 10.0742 66.0769 10.0791 66.0621C10.084 66.0473 10.086 66.0309 10.0848 66.0141C9.94803 64.2653 9.80508 62.5172 9.65591 60.7698C9.64217 60.6095 9.60848 60.4538 9.55483 60.3027C9.53324 60.2425 9.50871 60.2412 9.48123 60.2987C8.67522 61.971 7.88884 63.6579 7.12208 65.3595C7.06647 65.4838 7.09035 65.6415 7.19372 65.8325C7.23624 65.9117 7.21433 65.9392 7.12797 65.915Z" fill="#C8061B"/>
<path d="M105.211 55.7936L105.452 55.9123C105.56 55.9725 105.675 56.0033 105.8 56.0046C105.975 56.0065 106.093 56.0713 106.154 56.1989C106.159 56.2087 106.188 56.3248 106.24 56.5473C106.365 57.0759 106.479 57.6068 106.582 58.14C106.585 58.1538 106.591 58.1669 106.601 58.1781C106.611 58.1892 106.623 58.198 106.638 58.2038C106.768 58.2574 106.828 58.3565 106.818 58.5011C106.811 58.6091 106.808 58.6663 106.808 58.6728C106.832 59.8308 106.872 60.9882 106.927 62.1448C106.952 62.665 106.972 63.3192 106.988 64.1075C107.016 65.4507 107.094 66.7915 107.223 68.1301C107.255 68.4611 107.283 69.3774 107.307 70.8788C107.324 71.9674 107.324 72.6214 107.307 72.8405C107.252 73.5405 107.099 74.2137 106.847 74.8601C106.834 74.8922 106.813 74.9198 106.784 74.9392C106.756 74.9587 106.723 74.9691 106.689 74.9691C105.947 74.9697 105.209 74.9798 104.475 74.9995C104.266 75.0054 104.026 74.9857 103.757 74.9406C103.743 74.9384 103.731 74.9317 103.721 74.9215C103.711 74.9113 103.705 74.898 103.703 74.8837L103.423 73.0172C103.421 73.0041 103.414 72.9922 103.403 72.9838C103.392 72.9755 103.378 72.9713 103.364 72.972C102.705 73.006 102.045 73.0217 101.385 73.0191C101.328 73.0191 101.251 73.0276 101.152 73.0446C101.091 73.0558 101.028 73.0616 100.966 73.0623C100.953 73.0623 100.94 73.0573 100.929 73.0482C100.919 73.039 100.912 73.0263 100.91 73.0123C100.853 72.6956 100.714 72.6528 100.491 72.8837C100.478 72.8972 100.464 72.908 100.45 72.9153C100.435 72.9226 100.421 72.9262 100.408 72.9259L100.034 72.9102C99.933 72.8323 99.8525 72.7355 99.793 72.6197C99.5548 72.5222 99.321 72.5098 99.0913 72.5824C98.9585 72.6243 98.8283 72.6711 98.7007 72.7228C98.5483 72.7849 98.4387 72.8752 98.372 72.9936C98.1083 73.4633 97.8803 74.0695 97.688 74.812C97.6756 74.8598 97.6586 74.8951 97.637 74.918C97.5761 74.9815 97.5395 74.9305 97.5271 74.7649C97.5212 74.6838 97.5293 74.6043 97.5516 74.5265C97.6877 74.0508 97.8345 73.585 97.9922 73.129C98.0236 73.0381 98.0622 72.9691 98.108 72.922C98.1119 72.9181 98.1148 72.9134 98.1166 72.9083C98.1184 72.9032 98.119 72.8979 98.1183 72.8928C98.1176 72.8877 98.1157 72.883 98.1127 72.8792C98.1097 72.8754 98.1057 72.8725 98.1011 72.8709C97.9618 72.8219 97.8682 72.867 97.8205 73.0064C97.6157 73.6004 97.4577 74.236 97.3465 74.9131C97.3427 74.9358 97.3308 74.9563 97.313 74.9709C97.2951 74.9855 97.2725 74.9932 97.2493 74.9926L95.4034 74.9691C95.3902 74.9689 95.3776 74.9638 95.3678 74.9547C95.358 74.9457 95.3519 74.9333 95.3504 74.92C95.2955 74.29 95.0973 73.7106 94.7557 73.182C94.7485 73.1706 94.7373 73.1622 94.7241 73.1581C94.7108 73.154 94.6964 73.1545 94.6831 73.1595C94.5052 73.2262 94.3442 73.2288 94.2003 73.1673C94.1584 73.149 94.1238 73.1174 94.1018 73.0774C94.0798 73.0375 94.0716 72.9915 94.0786 72.9465C94.1198 72.6809 94.1872 72.4234 94.2808 72.1742C94.3783 71.9138 94.4283 71.78 94.4309 71.7728C94.8333 70.6037 95.2739 69.4496 95.7528 68.3106C95.8215 68.1477 95.9392 68.0336 96.1061 67.9681C96.1363 67.9568 96.1603 67.9353 96.1728 67.9083C96.3782 67.4693 96.5568 67.0205 96.7086 66.5619C96.9762 65.7513 97.1106 65.345 97.1119 65.343C97.3619 64.6731 97.6635 63.9401 98.0168 63.1439C98.1862 62.7618 98.3383 62.4572 98.4731 62.2302C98.8898 61.5282 99.3128 60.8305 99.742 60.137C100.125 59.5175 100.502 58.9833 100.871 58.5345C101.529 57.735 102.312 56.8754 103.218 55.9555C103.323 55.8489 103.418 55.7668 103.505 55.7092C103.592 55.651 103.71 55.6153 103.857 55.6022C104.321 55.561 104.772 55.6248 105.211 55.7936ZM99.4279 69.7787C100.163 69.9037 100.936 70.0188 101.748 70.1242C101.762 70.1261 101.945 70.167 102.297 70.2468C102.486 70.29 102.679 70.2965 102.874 70.2665C102.888 70.2643 102.901 70.2575 102.911 70.2473C102.92 70.2372 102.926 70.2242 102.926 70.2105C103.025 68.8059 103.059 67.818 103.027 67.2469C102.968 66.1713 102.952 64.9855 102.978 63.6895C102.986 63.3401 102.992 62.5158 102.996 61.2165C102.997 61.1812 102.986 61.1498 102.968 61.1291C102.924 61.0814 102.879 61.0735 102.83 61.1056C102.8 61.1259 102.773 61.1651 102.748 61.2234C102.463 61.89 102.276 62.3012 102.187 62.4569C101.942 62.8841 101.781 63.2704 101.703 63.6159C101.567 64.2184 101.38 64.7353 101.143 65.1664C101.115 65.2168 101.082 65.2492 101.044 65.2636C100.999 65.2812 100.95 65.2855 100.897 65.2763C100.883 65.2741 100.869 65.2763 100.857 65.2825C100.846 65.2887 100.836 65.2987 100.831 65.3107C100.288 66.6374 99.7658 68.0352 99.264 69.5039C99.211 69.659 99.2657 69.7506 99.4279 69.7787Z" fill="#C8061B"/>
<path d="M181.111 68.3527L177.212 68.1123C177.198 68.1115 177.184 68.1162 177.173 68.1255C177.163 68.1348 177.155 68.1479 177.153 68.1624C177.1 68.602 177.03 69.008 176.941 69.3802C176.581 70.9006 176.226 72.4227 175.878 73.9464C175.874 73.9609 175.868 73.9746 175.858 73.9866C175.849 73.9986 175.837 74.0086 175.824 74.0161L175.512 74.1839C175.485 74.1984 175.464 74.2236 175.453 74.2546L175.351 74.5421C175.345 74.5566 175.337 74.5698 175.326 74.5808C175.316 74.5918 175.302 74.6003 175.288 74.6059C174.869 74.7583 174.41 74.8692 173.913 74.9386C173.872 74.9441 173.83 74.9342 173.796 74.9108C173.761 74.8875 173.737 74.8522 173.728 74.812C173.558 74.1034 173.497 73.4132 173.545 72.7413C173.586 72.1597 173.632 71.5788 173.683 70.9985C173.684 70.9932 173.712 70.634 173.766 69.9209C173.804 69.4159 173.863 68.9128 173.942 68.4116C174.044 67.7705 174.115 67.269 174.155 66.9072C174.228 66.2595 174.339 65.3485 174.487 64.1742C174.715 62.3646 174.968 60.7656 175.246 59.3774C175.313 59.0398 175.387 58.7804 175.468 58.5992C175.577 58.3499 175.719 58.117 175.892 57.9004C176.074 57.6728 176.205 57.4232 176.288 57.1517C176.407 56.7559 176.467 56.5554 176.469 56.5501C176.588 56.2623 176.737 55.961 176.916 55.6463C176.928 55.6257 176.946 55.6098 176.968 55.6012C176.99 55.5927 177.015 55.5919 177.038 55.5992C177.176 55.645 177.304 55.6577 177.421 55.6375C177.618 55.6041 177.822 55.6365 178.032 55.7346C178.165 55.7968 178.313 55.8092 178.474 55.7719C178.48 55.7704 178.486 55.7702 178.492 55.7713C178.498 55.7723 178.504 55.7746 178.508 55.778C178.513 55.7814 178.517 55.7858 178.52 55.7908C178.523 55.7959 178.524 55.8015 178.524 55.8072C178.558 57.0477 178.564 57.7941 178.541 58.0467C178.408 59.501 178.277 60.5233 178.149 61.1134C177.87 62.3917 177.686 63.7542 177.596 65.2007C177.595 65.2185 177.598 65.2365 177.604 65.2533C177.61 65.2701 177.619 65.2855 177.631 65.2985C177.644 65.3114 177.658 65.3217 177.675 65.3287C177.691 65.3357 177.709 65.3392 177.727 65.339L181.594 65.3096C181.627 65.3093 181.659 65.2975 181.685 65.2762C181.711 65.2549 181.728 65.2255 181.734 65.1928C181.881 64.4477 181.98 63.7241 182.031 63.0221C182.046 62.8186 182.07 62.6273 182.102 62.448C182.158 62.1444 182.189 61.9531 182.197 61.8739C182.261 61.1706 182.334 60.6492 182.416 60.3096C182.566 59.6921 182.743 59.0826 182.949 58.4814C183.088 58.0758 183.182 57.66 183.23 57.2341C183.242 57.1222 183.325 57.0326 183.479 56.9652C183.495 56.9584 183.509 56.9486 183.52 56.9363C183.532 56.9239 183.54 56.9094 183.546 56.8936C183.587 56.7739 183.65 56.6725 183.733 56.5894C183.794 56.5311 183.893 56.4739 184.033 56.4176C184.268 56.3234 184.502 56.2309 184.737 56.1399C185.047 56.0189 185.364 55.9944 185.688 56.0663C185.703 56.0696 185.716 56.0768 185.726 56.0871C185.737 56.0975 185.745 56.1106 185.749 56.1252C185.826 56.3993 185.895 56.6754 185.956 56.9534C185.958 56.9613 185.996 57.1121 186.071 57.4058C186.216 57.9737 186.208 58.588 186.048 59.2488C185.839 60.1163 185.646 61.1664 185.468 62.3989C185.338 63.3096 185.238 63.9557 185.169 64.3371C184.619 67.4028 183.896 70.4283 183.001 73.4135C182.992 73.4432 182.973 73.4687 182.945 73.4852L182.601 73.6913C182.574 73.7071 182.553 73.7328 182.542 73.7639C182.489 73.9039 182.414 74.0285 182.317 74.1378C182.231 74.2353 182.112 74.2932 181.96 74.3115C181.861 74.3232 181.762 74.3321 181.664 74.338C181.589 74.3419 181.495 74.3648 181.381 74.4067C181.225 74.4642 181.065 74.4685 180.9 74.4194C180.886 74.4153 180.873 74.4073 180.863 74.3962C180.853 74.3851 180.846 74.3714 180.843 74.3566C180.711 73.703 180.663 73.0423 180.7 72.3743C180.707 72.2585 180.728 71.9857 180.764 71.5559C180.785 71.3066 180.818 71.0357 180.863 70.7433C180.982 69.9667 181.079 69.1875 181.155 68.4057C181.156 68.3993 181.155 68.3927 181.154 68.3865C181.152 68.3803 181.149 68.3745 181.144 68.3695C181.14 68.3646 181.135 68.3605 181.13 68.3577C181.124 68.3548 181.118 68.3531 181.111 68.3527Z" fill="#C8061B"/>
<path d="M37.1627 63.174C37.4774 63.2113 37.8375 63.1969 38.2432 63.1308C38.7796 63.0438 39.3622 63.0281 39.9909 63.0837C40.0295 63.087 40.1767 63.121 40.4325 63.1858C40.5955 63.227 40.7803 63.2355 40.987 63.2113C41.1152 63.1963 41.2127 63.2587 41.2794 63.3988L41.408 63.6657C41.42 63.6908 41.4457 63.7127 41.4796 63.7265C41.8578 63.8816 42.2019 64.1616 42.512 64.5666C42.9307 65.1115 43.2464 65.6729 43.459 66.2505C43.6677 66.8184 43.7616 67.4442 43.7407 68.1279C43.7066 69.2642 43.4044 70.3405 42.8339 71.3565C42.4276 72.0814 41.866 72.6846 41.1489 73.1661C41.0541 73.2302 40.9981 73.3188 40.9811 73.432C40.9536 73.6106 40.8499 73.7228 40.67 73.7686C40.6356 73.7776 40.6071 73.793 40.5886 73.8128L40.25 74.171C40.2271 74.1952 40.1988 74.211 40.1695 74.2161C39.7279 74.2927 39.3354 74.3964 38.9919 74.5272C38.2893 74.7948 37.5795 74.9102 36.8624 74.8736C36.0466 74.8331 35.2367 74.7395 34.4326 74.593C34.2566 74.5609 33.9383 74.5246 33.4778 74.484C33.307 74.469 33.1569 74.4058 33.0273 74.2946C32.8572 74.1487 32.7702 74.0745 32.7663 74.0719C32.3221 73.748 31.9315 73.3679 31.5946 72.9315C31.5193 72.8347 31.5111 72.7326 31.57 72.6254C31.922 71.9868 32.1778 71.3179 32.3374 70.6185C32.3773 70.4451 32.4742 69.7984 32.6279 68.6784C32.9642 66.2263 33.2638 64.3343 33.5268 63.0023C33.7499 61.8744 33.9298 60.844 34.0666 59.9111C34.1398 59.4119 34.2337 58.9349 34.3482 58.4803C34.5078 57.8417 34.6092 57.4534 34.6524 57.3154C34.7741 56.9222 34.9406 56.5545 35.1519 56.2124C35.2579 56.041 35.4172 55.9373 35.6298 55.9013C36.0636 55.8274 36.4908 55.8388 36.9115 55.9356C37.0633 55.9703 37.2206 56.0406 37.3835 56.1466C37.5294 56.2415 37.6756 56.3363 37.8222 56.4312C37.8497 56.4491 37.8709 56.4741 37.883 56.5028C37.9556 56.6847 37.9838 56.8967 37.9674 57.1388C37.9157 57.9055 37.8068 58.6638 37.6406 59.4135C37.4993 60.0494 37.3721 60.688 37.2589 61.3291C37.2582 61.3304 37.2357 61.5316 37.1912 61.9326C37.1637 62.1773 37.1015 62.4583 37.0047 62.7756C36.9727 62.8809 36.9998 62.9984 37.0862 63.1279C37.0948 63.1406 37.1061 63.1512 37.1193 63.1592C37.1325 63.1671 37.1473 63.1722 37.1627 63.174ZM35.3521 71.2711C35.4542 71.3267 35.5598 71.3614 35.6691 71.3751C36.1127 71.4301 36.5507 71.5138 36.9831 71.6263C37.4201 71.7408 37.8163 71.68 38.1715 71.4438C38.3011 71.3575 38.3668 71.3136 38.3688 71.3123C38.5945 71.1775 38.8104 71.0716 39.0165 70.9944C39.4692 70.8236 39.8293 70.5616 40.0969 70.2083C40.3383 69.8897 40.4914 69.4913 40.5562 69.013C40.6399 68.402 40.5703 67.7805 40.3472 67.1485C40.217 66.7801 40.0034 66.5155 39.7064 66.3546C39.5546 66.2721 39.3197 66.194 39.0017 66.12C38.7597 66.0644 38.513 66.0333 38.2618 66.0268C37.9105 66.0176 37.5595 66.0091 37.2088 66.0013C36.9818 65.996 36.8091 66.031 36.6907 66.1063C36.5252 66.211 36.411 66.3621 36.3482 66.5597C36.1408 67.2093 35.9779 67.928 35.8595 68.7157C35.7515 69.4321 35.6426 69.9381 35.5327 70.2338C35.4228 70.5295 35.3495 70.8504 35.3129 71.1965C35.3111 71.2116 35.3139 71.2268 35.3209 71.2401C35.328 71.2534 35.3388 71.2642 35.3521 71.2711Z" fill="#C8061B"/>
<path d="M90.2149 68.4438C90.1181 68.4261 89.948 68.4114 89.7046 68.3996C88.6108 68.3473 87.4907 68.2949 86.3445 68.2426C86.3246 68.2418 86.305 68.248 86.2893 68.26C86.2735 68.272 86.2625 68.2891 86.2582 68.3083C85.8709 70.0368 85.4966 71.7421 85.1355 73.4241C85.0779 73.6897 84.9932 73.9036 84.8813 74.0659C84.7923 74.1948 84.6926 74.3155 84.582 74.428C84.4806 74.5314 84.3501 74.6099 84.1905 74.6635C83.7508 74.8107 83.4217 74.9063 83.2032 74.9501C82.9985 74.9913 82.8833 74.9013 82.8578 74.6802C82.776 73.9691 82.743 73.2569 82.7587 72.5438C82.7698 72.0178 82.8025 71.3646 82.8568 70.5841C82.9105 69.8075 83.0034 69.0977 83.1355 68.4546C83.2225 68.0319 83.2732 67.7441 83.2876 67.591C83.3419 67.0094 83.3979 66.4278 83.4554 65.8462C83.6694 63.7134 83.9863 61.596 84.4064 59.4939C84.5012 59.0202 84.6896 58.5881 84.9716 58.1976C85.2104 57.8665 85.3936 57.5067 85.5212 57.1181C85.65 56.7236 85.8058 56.3287 85.9883 55.9336C85.9956 55.9176 86.0074 55.9042 86.0223 55.8951C86.0371 55.886 86.0544 55.8817 86.0717 55.8826C86.5931 55.9074 87.0998 55.9712 87.5918 56.0739C87.6073 56.0773 87.6212 56.0859 87.6311 56.0983C87.6409 56.1106 87.6461 56.126 87.6458 56.1416C87.632 56.6847 87.6477 57.2051 87.6929 57.703C87.7119 57.9123 87.7001 58.1665 87.6576 58.4655C87.5889 58.9476 87.5542 59.193 87.5535 59.2015C87.5084 59.6038 87.4623 60.0058 87.4152 60.4075C87.3707 60.785 87.3088 61.1841 87.2297 61.6048C87.0426 62.6077 86.8944 63.4824 86.7851 64.2289C86.7328 64.5868 86.7177 64.9858 86.74 65.4261C86.7405 65.4388 86.7461 65.4508 86.7556 65.4596C86.7651 65.4684 86.7778 65.4733 86.791 65.4732H90.7252C90.7518 65.4732 90.7773 65.4637 90.7971 65.4465C90.8168 65.4293 90.8293 65.4057 90.8322 65.38C90.9271 64.5151 91.0344 63.6735 91.1541 62.855C91.2346 62.3009 91.2993 61.7448 91.3484 61.1867C91.3955 60.6509 91.5358 60.0641 91.7694 59.4262C92.0481 58.664 92.3248 57.9015 92.5996 57.1387C92.6461 57.0105 92.7033 56.9051 92.7713 56.8227C92.8302 56.7514 92.9293 56.6932 93.0687 56.648C93.4115 56.5355 93.7556 56.4259 94.1011 56.3193C94.2679 56.2682 94.438 56.2551 94.6114 56.28C94.6503 56.2855 94.6867 56.3025 94.7161 56.3286C94.7454 56.3548 94.7663 56.3891 94.7762 56.4272C94.945 57.0664 95.0781 57.7043 95.1756 58.3408C95.2201 58.6326 95.1998 58.9525 95.1148 59.3006C94.9257 60.0706 94.7726 60.8475 94.6555 61.6313C94.3984 63.3506 94.0566 65.2959 93.63 67.4673C93.4364 68.4533 93.2339 69.3044 93.0226 70.0208C92.753 70.9341 92.5221 71.8575 92.3297 72.7911C92.3081 72.8958 92.2519 73.0388 92.1609 73.22C92.1034 73.3351 92.0092 73.4522 91.8783 73.5713C91.6991 73.7335 91.5169 73.9341 91.3317 74.1729C91.2955 74.2192 91.2449 74.2514 91.1884 74.2641L90.0913 74.5095C90.0721 74.5139 90.0523 74.5142 90.033 74.5105C90.0137 74.5068 89.9954 74.4992 89.9792 74.488C89.9631 74.4768 89.9494 74.4624 89.9391 74.4456C89.9289 74.4289 89.9222 74.4102 89.9195 74.3907C89.8463 73.8641 89.8011 73.3292 89.7841 72.7862C89.7684 72.3113 89.7959 71.7764 89.8666 71.1817C89.9719 70.2854 90.1011 69.3924 90.2542 68.5027C90.2566 68.4893 90.2538 68.4757 90.2464 68.4646C90.2391 68.4536 90.2277 68.4461 90.2149 68.4438Z" fill="#C8061B"/>
<path d="M137.546 73.1112C137.611 72.9744 137.557 72.9123 137.383 72.9247C137.296 72.9306 137.227 72.9241 137.177 72.9051C136.979 72.8292 136.816 72.702 136.688 72.5233C136.585 72.3794 136.447 72.2927 136.274 72.2633C136.17 72.245 136.108 72.1979 136.087 72.122C136.063 72.0321 136.014 71.9509 135.947 71.8874C135.839 71.786 135.782 71.6758 135.776 71.5567C135.776 71.5548 135.792 71.4406 135.824 71.2142C135.995 70.0163 136.185 68.8217 136.397 67.6304C136.522 66.9231 136.629 66.2777 136.718 65.6942C137.108 63.1381 137.509 60.8362 137.922 58.7884C138.031 58.2474 138.251 57.7057 138.583 57.1633C138.6 57.1351 138.624 57.1123 138.653 57.0976C139.136 56.8424 139.697 56.5843 140.339 56.3233C140.795 56.1369 141.257 56.0211 141.722 55.9759C141.973 55.9517 142.444 55.9517 143.136 55.9759C143.802 55.9988 144.534 56.0492 145.331 56.127C145.659 56.1591 145.928 56.2749 146.136 56.4744C146.547 56.8676 146.925 57.1444 147.269 57.3047C147.44 57.3838 147.559 57.4712 147.627 57.5667C147.676 57.6341 147.702 57.6697 147.705 57.6736C148.205 58.2592 148.589 58.9314 148.858 59.6903C149.113 60.4139 149.146 61.1146 148.956 61.7923C148.826 62.2529 148.568 62.7128 148.182 63.1721C147.837 63.581 147.442 63.9421 146.996 64.2555C146.815 64.3837 146.807 64.5071 146.972 64.6255C147.021 64.6615 147.047 64.6804 147.05 64.6824C147.76 65.2444 148.215 65.911 148.416 66.6824C148.815 68.2133 148.713 69.7072 148.113 71.1642C147.887 71.7118 147.54 72.1658 147.072 72.5263C146.189 73.2054 145.31 73.7333 144.436 74.1102C144.112 74.2489 143.736 74.3303 143.308 74.3545C143.056 74.3689 142.928 74.3761 142.926 74.3761C142.198 74.4357 141.582 74.5289 141.081 74.6558C140.961 74.6859 140.922 74.7526 140.962 74.856C140.964 74.8616 140.965 74.8676 140.965 74.8735C140.964 74.8795 140.963 74.8852 140.96 74.8904C140.957 74.8956 140.954 74.9 140.949 74.9034C140.944 74.9068 140.939 74.909 140.933 74.91C139.944 75.0886 139.02 74.9283 138.16 74.4291C138.148 74.422 138.137 74.4114 138.13 74.3984C138.123 74.3855 138.12 74.3707 138.12 74.3555C138.126 74.031 137.986 73.8282 137.702 73.7471C137.562 73.7072 137.472 73.6673 137.433 73.6274C137.336 73.5273 137.333 73.4124 137.425 73.2829C137.505 73.1704 137.545 73.1131 137.546 73.1112ZM143.226 59.7826C143.239 59.7505 143.277 59.7417 143.34 59.7561C143.658 59.8306 143.976 59.9062 144.294 59.9827C144.383 60.0043 144.415 59.9805 144.393 59.9111C144.382 59.8782 144.363 59.8485 144.338 59.8247C144.313 59.8009 144.282 59.7837 144.249 59.7747C143.379 59.5333 142.491 59.4247 141.587 59.4489C141.562 59.4495 141.537 59.4565 141.515 59.4691C141.493 59.4818 141.475 59.4998 141.461 59.5215C141.282 59.8198 141.178 60.1221 141.15 60.4283C141.123 60.7246 141.086 61.0197 141.037 61.3134C141.023 61.4005 140.975 61.5329 140.894 61.7109C140.793 61.9307 140.749 62.1993 140.762 62.5166C140.763 62.543 140.774 62.5679 140.793 62.5859C140.813 62.6039 140.838 62.6135 140.865 62.6128C141.643 62.5912 142.367 62.4773 143.037 62.2712C143.442 62.1463 143.852 62.0573 144.266 62.0043C144.397 61.9873 144.492 61.9202 144.553 61.8031C144.727 61.4662 144.765 61.1551 144.667 60.8699C144.59 60.6422 144.399 60.4312 144.095 60.2369C143.838 60.072 143.563 59.9419 143.269 59.8463C143.261 59.8438 143.254 59.8401 143.247 59.8354C143.241 59.8308 143.235 59.8253 143.231 59.8193C143.227 59.8133 143.225 59.807 143.224 59.8007C143.223 59.7943 143.223 59.7882 143.226 59.7826ZM144.349 66.4312C143.888 66.055 143.389 65.8414 142.853 65.7903C142.592 65.7661 142.199 65.806 141.672 65.9101C141.283 65.9873 140.895 66.071 140.508 66.1613C140.479 66.1682 140.452 66.1837 140.43 66.2059C140.409 66.228 140.395 66.2558 140.39 66.2859C140.349 66.5005 140.302 66.7207 140.247 66.9464C140.225 67.0406 140.177 67.086 140.103 67.0828C140.065 67.0812 140.027 67.0947 139.999 67.1205C139.971 67.1462 139.954 67.1821 139.952 67.2202C139.89 68.4894 139.747 69.77 139.524 71.0621C139.521 71.0778 139.522 71.0938 139.527 71.1091C139.531 71.1244 139.539 71.1385 139.549 71.1503C139.56 71.1622 139.573 71.1716 139.588 71.1777C139.602 71.1838 139.618 71.1866 139.634 71.1858C140.322 71.1485 141.041 71.1341 141.792 71.1426C142.299 71.1485 142.787 71.0566 143.256 70.8668C143.647 70.7085 144.032 70.5365 144.41 70.3506C144.608 70.2532 144.714 70.1989 144.728 70.1877C144.815 70.1217 144.891 70.0245 144.957 69.8963C145.135 69.5469 145.306 69.1927 145.467 68.8335C145.525 68.7046 145.542 68.5708 145.518 68.4321C145.382 67.6215 144.993 66.9545 144.349 66.4312Z" fill="#C8061B"/>
<path d="M150.033 74.1537C150.003 74.1468 149.977 74.1299 149.959 74.1058C149.941 74.0818 149.932 74.0522 149.934 74.0222C149.955 73.6048 150.001 73.2165 150.07 72.8574C150.136 72.5185 150.186 72.1776 150.219 71.8348C150.26 71.4148 150.306 71.0739 150.359 70.8122C150.549 69.8564 150.66 69.263 150.692 69.0321C150.94 67.2493 151.13 66.09 151.263 65.5542C151.724 63.6844 152.078 61.7953 152.326 59.8869C152.362 59.6095 152.406 59.2952 152.459 58.9439C152.49 58.7345 152.52 58.5245 152.547 58.3138C152.579 58.077 152.626 57.8712 152.689 57.6966C152.851 57.2504 153.066 56.7957 153.334 56.3325C153.342 56.3192 153.352 56.3078 153.365 56.299C153.377 56.2902 153.391 56.2842 153.406 56.2815L155.042 56.0037C155.08 55.9973 155.12 55.9995 155.157 56.0102C155.195 56.0208 155.23 56.0398 155.261 56.0656C155.544 56.307 155.714 56.6066 155.769 56.9645C155.781 57.0443 155.784 57.3737 155.778 57.9527C155.768 58.7973 155.702 59.6383 155.579 60.4757C155.475 61.1843 155.4 61.9304 155.354 62.7142C155.347 62.8313 155.4 62.9029 155.515 62.9291C156.121 63.0658 156.739 63.1803 157.371 63.2726C157.664 63.3151 158.04 63.4459 158.5 63.6651C158.997 63.9019 159.387 64.1944 159.671 64.5424C159.773 64.668 159.854 64.7606 159.912 64.8201C160.048 64.9582 160.132 65.0494 160.162 65.0939C160.246 65.2163 160.426 65.5843 160.702 66.198C160.906 66.652 161.009 67.0835 161.012 67.4923C161.017 68.1217 160.983 68.7488 160.908 69.3736C160.829 70.0304 160.593 70.7219 160.199 71.4481C160.076 71.6745 159.947 71.8616 159.812 72.0095C159.794 72.0284 159.629 72.1799 159.314 72.4638C158.95 72.7936 158.587 73.0726 158.224 73.3009C157.345 73.8551 156.382 74.2875 155.336 74.5983C155.332 74.5996 155.127 74.6715 154.721 74.8142C154.375 74.9352 154.049 74.9643 153.74 74.9015C152.758 74.7013 151.95 74.5747 151.317 74.5217C151.144 74.5073 150.972 74.4658 150.801 74.3971C150.547 74.2944 150.291 74.2132 150.033 74.1537ZM153.632 71.5787C153.913 71.5996 154.22 71.5659 154.553 71.4776C155.159 71.3173 155.749 71.1109 156.322 70.8584C156.711 70.6876 156.987 70.4243 157.151 70.0684C157.554 69.1911 157.584 68.284 157.243 67.3471C157.016 66.7249 156.576 66.3602 155.922 66.2529C155.605 66.2012 155.263 66.163 154.894 66.1381C154.861 66.1358 154.829 66.1451 154.801 66.1644C154.774 66.1837 154.754 66.2118 154.745 66.2441C154.285 67.896 153.864 69.6075 153.483 71.3785C153.457 71.5021 153.507 71.5689 153.632 71.5787Z" fill="#C8061B"/>
<path d="M203.862 74.1125C203.941 74.1367 203.987 74.1236 203.999 74.0733C204.011 74.0268 203.996 74.0128 203.954 74.0311L203.862 74.0713C203.735 74.1492 203.676 74.2849 203.684 74.4786C203.691 74.6271 203.644 74.681 203.546 74.6405C203.516 74.6281 203.479 74.5921 203.434 74.5325C203.34 74.4076 203.219 74.4403 203.069 74.6307C203.059 74.6433 203.046 74.6536 203.031 74.6604C203.016 74.6672 203.001 74.6704 202.985 74.6696C202.97 74.6688 202.955 74.6641 202.943 74.6559C202.931 74.6477 202.921 74.6363 202.916 74.6228L202.761 74.2686C202.752 74.2488 202.743 74.2314 202.735 74.2178C202.726 74.2043 202.718 74.195 202.712 74.191C202.568 74.0929 202.463 74.1524 202.397 74.3696C202.391 74.388 202.381 74.405 202.368 74.4193C202.355 74.4337 202.339 74.4452 202.32 74.4532C202.302 74.4611 202.282 74.4653 202.261 74.4654C202.24 74.4656 202.22 74.4617 202.2 74.454L201.602 74.2205C201.645 73.5518 201.641 72.8845 201.589 72.2185C201.569 71.9712 201.563 71.7315 201.569 71.4992C201.576 71.2591 201.578 71.0193 201.576 70.7799C201.575 70.2761 201.613 69.7763 201.69 69.2804C201.737 68.9775 201.777 68.6791 201.809 68.3854C201.831 68.1852 201.859 67.986 201.893 67.7878C201.945 67.4822 201.978 67.2843 201.99 67.194C202.09 66.4921 202.185 65.7894 202.277 65.0861C202.417 63.9994 202.602 62.9206 202.829 61.8496C202.955 61.2556 203.064 60.6445 203.156 60.0165C203.158 60.0004 203.157 59.9841 203.153 59.9685C203.148 59.9529 203.141 59.9384 203.13 59.9261C203.12 59.9137 203.107 59.9038 203.092 59.8968C203.077 59.8899 203.061 59.8862 203.045 59.886C202.426 59.8794 201.791 59.8389 201.138 59.7643C201.04 59.7532 200.96 59.7002 200.9 59.6053C200.891 59.5911 200.879 59.5791 200.867 59.5699C200.854 59.5608 200.841 59.5548 200.827 59.5523L200.246 59.4414C200.205 59.4334 200.167 59.4132 200.138 59.3835C200.109 59.3538 200.09 59.3161 200.083 59.2756C200.055 59.0872 200.03 58.8984 200.01 58.7093C199.979 58.4254 200.02 57.8222 200.133 56.8997C200.134 56.8852 200.14 56.8714 200.149 56.8601C200.159 56.8488 200.171 56.8404 200.185 56.8359C200.6 56.7005 201.082 56.589 201.629 56.5013C203.064 56.2723 204.462 56.1323 205.823 56.0813C206.646 56.0505 207.3 56.044 207.786 56.0617C208.779 56.0983 209.763 56.2399 210.739 56.4866C210.764 56.4931 210.788 56.5049 210.808 56.5213C210.829 56.5377 210.846 56.5583 210.858 56.5818C210.943 56.7545 210.99 56.9403 210.996 57.1392C211.012 57.641 210.981 58.1405 210.903 58.6377C210.879 58.7842 210.806 58.8997 210.684 58.9841C210.244 59.2877 209.752 59.4741 209.207 59.5435C208.492 59.6351 207.799 59.6838 207.129 59.6897C207.081 59.6902 207.034 59.707 206.997 59.7373C206.96 59.7676 206.934 59.8097 206.924 59.8565C206.813 60.3701 206.739 60.847 206.703 61.2873C206.589 62.6606 206.401 64.0236 206.137 65.3766C206.118 65.4741 206.104 65.5578 206.094 65.6278C205.895 67.0789 205.62 68.5153 205.27 69.9369C205.091 70.6651 204.929 71.3968 204.785 72.1322C204.61 73.0245 204.374 73.8394 204.077 74.5767C204.041 74.665 203.988 74.6896 203.92 74.6503C203.881 74.6287 203.855 74.5914 203.841 74.5384C203.805 74.3945 203.812 74.2525 203.862 74.1125Z" fill="#C8061B"/>
<path d="M186.248 73.5724C186.247 73.4841 186.207 73.4199 186.129 73.38C186.22 72.5531 186.372 71.7369 186.584 70.9316C186.592 70.9022 186.609 70.8745 186.634 70.8521C186.767 70.7343 186.834 70.5976 186.835 70.4419C186.837 70.3019 186.849 70.1629 186.87 70.0248C186.913 69.7396 186.897 69.5181 186.822 69.3604C186.776 69.2649 186.771 69.1674 186.807 69.068C186.99 68.5564 187.11 68.0611 187.169 67.5822C187.171 67.5652 187.209 67.2941 187.284 66.7687C187.313 66.5652 187.325 66.3605 187.321 66.1544C187.316 65.9149 187.33 65.7125 187.364 65.5469C187.614 64.3281 187.862 63.1089 188.108 61.8895C188.11 61.8842 188.157 61.6274 188.25 61.1191C188.32 60.7364 188.405 60.3909 188.505 60.0828C188.596 59.8028 188.662 59.5319 188.704 59.2703C188.762 58.9072 188.815 58.6353 188.863 58.4548C188.994 57.9621 189.099 57.4639 189.178 56.9602C189.183 56.9283 189.198 56.8991 189.22 56.8768C189.388 56.7119 189.571 56.5729 189.772 56.4597C189.942 56.3635 190.159 56.2978 190.421 56.2624C191.426 56.1277 192.34 56.0763 193.166 56.1084C193.497 56.1214 194.196 56.1705 195.262 56.2556C195.265 56.2562 195.666 56.2938 196.466 56.3684C197.229 56.4397 197.993 56.4757 198.76 56.4764C198.776 56.4763 198.791 56.4801 198.804 56.4874C198.817 56.4947 198.828 56.5051 198.834 56.5176C198.88 56.6013 198.865 56.6661 198.79 56.7119C198.754 56.7335 198.698 56.7466 198.624 56.7511C198.408 56.7636 198.192 56.7783 197.976 56.7953C197.959 56.7967 197.943 56.802 197.929 56.8108C197.915 56.8197 197.903 56.8317 197.895 56.8461C197.886 56.8604 197.881 56.8765 197.88 56.8931C197.879 56.9098 197.883 56.9263 197.889 56.9415C198.006 57.1986 197.949 57.2421 197.716 57.072C197.637 57.0146 197.539 56.9887 197.442 56.9994C197.102 57.0367 196.818 57.1067 196.59 57.2094C196.56 57.2233 196.538 57.2468 196.526 57.2752C196.418 57.5395 196.474 57.7917 196.693 58.0318C196.805 58.1541 196.773 58.2323 196.597 58.2663L196.138 58.3547C196.096 58.3625 196.09 58.3818 196.118 58.4126C196.154 58.4531 196.215 58.4721 196.301 58.4695C196.5 58.4642 196.609 58.5542 196.628 58.7393C196.63 58.7533 196.626 58.7675 196.618 58.7794C196.61 58.7914 196.598 58.8004 196.584 58.8051C196.419 58.862 196.261 58.8872 196.11 58.8807C195.393 58.8493 194.741 58.8502 194.153 58.8836C194.136 58.8847 194.12 58.8903 194.107 58.8993C194.095 58.9083 194.088 58.9202 194.087 58.9327C194.084 58.97 194.121 58.9896 194.197 58.9916C194.373 58.9968 194.421 59.0311 194.341 59.0946C194.315 59.1149 194.281 59.127 194.241 59.1309C193.639 59.1852 193.004 59.2189 192.337 59.232C192.307 59.2329 192.279 59.2449 192.257 59.2655C192.236 59.2862 192.223 59.3141 192.221 59.3439C192.179 60.0393 192.103 60.6638 191.991 61.2172C191.872 61.81 191.765 62.405 191.67 63.0023C191.602 63.4262 191.57 63.7432 191.575 63.9532C191.576 63.9663 191.582 63.9787 191.591 63.9877C191.601 63.9967 191.613 64.0016 191.626 64.0013C193.354 63.9791 195.077 64.0468 196.797 64.2045C196.947 64.2182 196.947 64.2509 196.797 64.3026L196.257 64.489C196.243 64.4941 196.229 64.5025 196.218 64.5137C196.207 64.525 196.199 64.5386 196.194 64.5537C196.19 64.5688 196.188 64.5848 196.19 64.6007C196.193 64.6165 196.198 64.6317 196.207 64.6451C196.589 65.211 196.599 65.7854 196.237 66.3683C196.12 66.5574 196.029 66.7766 195.963 67.0258C195.933 67.1403 195.884 67.2525 195.816 67.3624C195.754 67.4612 195.667 67.54 195.554 67.5989C195.119 67.824 194.65 67.913 194.146 67.8659C193.094 67.7677 192.039 67.701 190.983 67.6657C190.969 67.6651 190.955 67.6692 190.943 67.6774C190.932 67.6856 190.924 67.6973 190.92 67.7108C190.777 68.2008 190.666 68.6984 190.589 69.2034C190.445 70.1442 190.315 71.086 190.198 72.0287C190.196 72.0382 190.197 72.0479 190.2 72.057C190.203 72.0662 190.208 72.0746 190.214 72.0818C190.221 72.0889 190.229 72.0946 190.237 72.0985C190.246 72.1024 190.256 72.1043 190.265 72.1043C190.665 72.103 191.053 72.099 191.43 72.0925C191.633 72.0886 192.021 72.0719 192.595 72.0425C193.184 72.0124 193.604 72.0166 193.853 72.0552C194.4 72.1403 194.99 72.1432 195.624 72.064C195.668 72.0585 195.713 72.0697 195.749 72.0956C195.785 72.1214 195.81 72.1599 195.819 72.2034C195.853 72.3689 195.781 72.6021 195.603 72.9031C195.57 72.9587 195.552 73.0186 195.549 73.0827C195.527 73.4935 195.463 73.8795 195.357 74.2407C195.301 74.433 195.188 74.5832 195.02 74.6911C194.871 74.786 194.713 74.8563 194.546 74.9021C194.429 74.9335 194.26 74.9508 194.038 74.9541C191.539 74.9901 189.041 74.9891 186.542 74.9512C186.529 74.951 186.516 74.9459 186.506 74.9367C186.496 74.9276 186.49 74.915 186.487 74.9011L186.248 73.5724Z" fill="#C8061B"/>
<path d="M124.93 67.7226C125.015 67.6388 125.101 67.5149 125.188 67.3507C125.576 66.6238 126.148 65.5116 126.905 64.0141C127.717 62.4086 128.644 60.7966 129.685 59.178C130.227 58.336 130.506 57.9036 130.522 57.8807C130.827 57.46 131.18 57.0802 131.579 56.7413C131.585 56.7368 131.669 56.657 131.834 56.5019C132.01 56.3357 132.221 56.2255 132.467 56.1712C132.718 56.1162 132.893 56.1588 132.993 56.2988C133.092 56.4361 133.222 56.4826 133.386 56.4381C133.647 56.3668 133.885 56.3851 134.1 56.4931C134.236 56.5604 134.354 56.5219 134.456 56.3773C134.464 56.3657 134.475 56.3564 134.487 56.3503C134.5 56.3442 134.514 56.3415 134.528 56.3424C134.542 56.3433 134.556 56.3477 134.568 56.3554C134.58 56.3631 134.589 56.3736 134.596 56.3861C134.707 56.5948 134.785 56.6197 134.831 56.4607C134.852 56.3861 134.872 56.3347 134.892 56.3066C134.987 56.1699 135.064 56.1908 135.126 56.3694C135.159 56.4636 135.176 56.5137 135.178 56.5196C135.509 57.3766 135.587 58.27 135.413 59.1996C135.35 59.5346 135.291 59.8283 135.237 60.0809C135.199 60.2568 135.122 60.5463 135.007 60.9494C134.729 61.9287 134.528 62.9729 134.407 64.0818C134.329 64.7851 134.185 65.5836 133.973 66.4773C133.767 67.3435 133.582 68.2142 133.417 69.0896C133.128 70.629 132.736 72.0899 132.242 73.4723C132.061 73.9767 131.782 74.4432 131.403 74.8717C131.382 74.8953 131.354 74.9118 131.322 74.9188C130.652 75.0686 130.069 75.0627 129.574 74.9011C129.261 74.7991 129.085 74.5946 129.047 74.2878C129.036 74.2021 129.051 73.9564 129.092 73.5508C129.176 72.7075 129.318 71.8734 129.519 71.0484C129.621 70.6277 129.703 70.2041 129.765 69.7775C129.845 69.2273 129.922 68.804 129.995 68.5077C130.209 67.6474 130.443 66.792 130.695 65.9415C130.789 65.6268 130.865 65.281 130.924 64.9042C130.993 64.4645 131.066 64.1168 131.144 63.861C131.234 63.5653 131.281 63.3059 131.285 63.0828C131.285 63.0488 131.273 63.0435 131.249 63.0671C130.951 63.3523 130.654 63.7233 130.359 64.1799C128.855 66.5011 127.819 68.1959 127.249 69.2643C126.515 70.6401 125.721 72.2021 124.869 73.9502C124.717 74.2623 124.518 74.5884 124.272 74.9286C124.264 74.941 124.252 74.9511 124.238 74.9581C124.225 74.9651 124.21 74.9688 124.195 74.9688C123.372 74.9747 122.55 74.977 121.729 74.9757C121.427 74.9751 121.216 74.944 121.095 74.8825C120.872 74.77 120.748 74.5698 120.722 74.2819C120.711 74.1648 120.706 74.1033 120.705 74.0974C120.679 73.8998 120.652 73.7026 120.624 73.5057C120.535 72.8809 120.537 72.2623 120.631 71.6499C120.644 71.5616 120.753 71.0637 120.957 70.1563C121.033 69.824 121.108 69.492 121.185 69.1603C121.262 68.8233 121.331 68.4903 121.391 68.1613C121.891 65.4148 122.206 63.7688 122.336 63.2231C122.648 61.914 122.924 60.5977 123.163 59.2742C123.258 58.7528 123.369 58.3419 123.499 58.0416C123.723 57.5235 124.014 57.0413 124.371 56.5951C124.392 56.5692 124.42 56.5518 124.451 56.5461C124.553 56.5271 124.656 56.5186 124.761 56.5205C124.768 56.5205 124.836 56.5179 124.965 56.5127C125.132 56.5055 125.26 56.5778 125.349 56.7296C125.417 56.846 125.466 56.8385 125.497 56.707C125.562 56.4276 125.766 56.285 126.106 56.2791C126.241 56.2765 126.334 56.337 126.386 56.4607C126.48 56.6825 126.512 56.9307 126.484 57.2055C126.46 57.4378 126.448 57.5578 126.448 57.5657C126.439 57.722 126.43 57.8781 126.421 58.0338C126.414 58.1797 126.413 58.3354 126.42 58.5009C126.439 58.9484 126.435 59.2631 126.409 59.4449C126.322 60.0311 126.15 60.9078 125.893 62.075C125.724 62.8456 125.591 63.4865 125.493 63.9974C125.303 64.9977 125.118 65.999 124.938 67.0013C124.896 67.2349 124.88 67.4701 124.892 67.7069C124.893 67.7416 124.906 67.7468 124.93 67.7226Z" fill="#C8061B"/>
<path d="M161.679 74.5832C161.749 74.4248 161.768 74.2786 161.734 74.1445C161.729 74.1268 161.724 74.1278 161.719 74.1475L161.692 74.2387C161.682 74.0058 161.681 73.3516 161.689 72.276C161.692 71.7121 161.72 71.2028 161.77 70.7481C161.771 70.7363 161.848 70.2335 162.001 69.2397C162.731 64.4619 163.192 61.5077 163.381 60.3772C163.558 59.3259 163.874 58.3187 164.329 57.3557C164.491 57.0142 164.703 56.6861 164.964 56.3714C164.995 56.3342 165.034 56.3046 165.078 56.2848C165.123 56.2651 165.171 56.2557 165.219 56.2575C165.689 56.2732 166.181 56.2467 166.694 56.1781C166.718 56.1751 166.743 56.1805 166.763 56.1934C166.783 56.2063 166.798 56.2259 166.805 56.2487C166.886 56.5097 167.073 56.6766 167.368 56.7492C167.394 56.7555 167.416 56.7718 167.431 56.7945C167.445 56.8172 167.45 56.8446 167.444 56.8709C167.226 57.9124 167.044 58.9454 166.897 59.97C166.853 60.2683 166.78 60.9179 166.676 61.9189C166.597 62.6752 166.499 63.4292 166.384 64.1809C166.3 64.7285 166.192 65.1963 166.061 65.5842C166.033 65.6713 166.019 65.7481 166.02 65.8149C166.023 65.9182 166.023 65.9735 166.022 65.9807C165.951 66.6794 165.871 67.2875 165.78 67.805C165.426 69.8115 164.986 71.7991 164.46 73.7677C164.361 74.138 164.22 74.4912 164.037 74.8275C164.029 74.8417 164.019 74.8538 164.006 74.8627C163.993 74.8716 163.979 74.8771 163.964 74.8786L163.028 74.9796C162.993 74.9834 162.958 74.9737 162.929 74.9524C162.899 74.9312 162.878 74.8997 162.869 74.8638C162.804 74.6054 162.715 74.5626 162.602 74.7353C162.496 74.8982 162.38 74.9616 162.253 74.9257C162.02 74.8596 161.829 74.7454 161.679 74.5832Z" fill="#C8061B"/>
<path d="M51.0192 74.273C50.9518 74.3266 50.9148 74.4028 50.9083 74.5016C50.8984 74.6442 50.8455 74.692 50.7493 74.6449C50.7297 74.6351 50.6891 74.5994 50.6276 74.5379C50.5288 74.4378 50.4428 74.4604 50.3695 74.6056C50.3531 74.6377 50.3299 74.6613 50.3047 74.6714C50.2334 74.7002 50.1759 74.69 50.132 74.641C50.1072 74.6135 50.0911 74.5657 50.0839 74.4977C50.0329 74.0136 49.8831 74.0064 49.6345 74.4761C49.6211 74.5014 49.5973 74.5198 49.5683 74.5273C49.5392 74.5349 49.5073 74.5309 49.4794 74.5163L48.9426 74.2376C48.9018 74.2165 48.8672 74.1865 48.8424 74.1509C48.8176 74.1152 48.8034 74.0751 48.8013 74.0345C48.7549 73.1932 48.7434 72.3449 48.767 71.4899C48.7827 70.9233 48.8432 70.2727 48.9485 69.538C49.169 67.9973 49.3898 66.4562 49.6109 64.9149C49.8399 63.3225 50.135 61.7418 50.4961 60.173C50.4986 60.1624 50.4987 60.1514 50.4965 60.1408C50.4943 60.1302 50.4898 60.1202 50.4833 60.1116C50.4768 60.103 50.4686 60.0959 50.4591 60.0909C50.4496 60.0859 50.4391 60.0831 50.4284 60.0827C49.8533 60.0566 49.2782 60.0281 48.7032 59.9973C48.5573 59.9895 48.4068 59.9509 48.2518 59.8815C48.0522 59.7913 47.8311 59.7092 47.5884 59.6352C47.466 59.5973 47.3813 59.525 47.3342 59.4184C47.3067 59.3569 47.2933 59.2538 47.294 59.1092C47.2972 58.5263 47.3322 57.9087 47.399 57.2565C47.4042 57.2084 47.4236 57.1629 47.4547 57.126C47.4858 57.0891 47.5273 57.0624 47.5737 57.0494C48.2861 56.8512 49.0022 56.7066 49.7218 56.6156C50.0097 56.5796 50.661 56.5195 51.6757 56.4351C52.1395 56.3971 52.604 56.3651 53.0692 56.3389C53.7967 56.2983 54.2609 56.2764 54.4617 56.2731C55.6374 56.2548 56.7927 56.4145 57.9278 56.752C57.9685 56.7639 58.0054 56.7866 58.0345 56.8176C58.0637 56.8487 58.0841 56.887 58.0937 56.9287C58.1499 57.1806 58.1689 57.4138 58.1506 57.6284C58.1172 58.0157 58.0803 58.4023 58.0397 58.7883C58.0227 58.9525 57.97 59.0762 57.8817 59.1593C57.8595 59.1802 57.7512 59.2427 57.5569 59.3467C57.3004 59.4841 57.0341 59.5953 56.7581 59.6804C56.5376 59.7484 56.2556 59.7975 55.9121 59.8276C55.3698 59.8747 54.8117 59.9139 54.238 59.9453C54.1987 59.9475 54.1615 59.9637 54.133 59.9911C54.1046 60.0184 54.0868 60.0551 54.0829 60.0945C53.918 61.7517 53.7152 63.4082 53.4745 65.064C53.4594 65.1687 53.4329 65.2701 53.395 65.3682C53.3498 65.484 53.323 65.5838 53.3145 65.6676C53.2478 66.3532 53.1588 66.9675 53.0476 67.5105C52.9789 67.8461 52.835 68.4961 52.6158 69.4605C52.5693 69.6633 52.4405 70.3044 52.2291 71.3839C52.059 72.2507 51.8396 73.1055 51.5707 73.9481C51.5641 73.9684 51.5157 74.08 51.4254 74.2828C51.3836 74.3783 51.3456 74.4944 51.3116 74.6312C51.29 74.7195 51.2403 74.7424 51.1624 74.6999C51.1491 74.6928 51.1376 74.6826 51.1288 74.67C51.1201 74.6573 51.1145 74.6427 51.1124 74.6272L51.0643 74.2936C51.0591 74.2596 51.044 74.2527 51.0192 74.273ZM51.2998 74.1395C51.398 74.1199 51.4081 74.0868 51.3302 74.0404C51.3169 74.0326 51.3021 74.0276 51.2866 74.0255C51.2711 74.0235 51.2552 74.0246 51.24 74.0286C51.1431 74.0548 51.1353 74.0881 51.2164 74.1287C51.2426 74.1418 51.2704 74.1454 51.2998 74.1395Z" fill="#C8061B"/>
<path d="M69.2709 56.6765C69.2983 56.7217 69.3395 56.738 69.3945 56.7256C69.5698 56.685 69.7465 56.6958 69.9244 56.758C69.9493 56.9091 69.9113 56.986 69.8106 56.9886C69.5456 56.9951 69.2826 57.017 69.0216 57.0543C68.9588 57.0635 68.9179 57.0818 68.8989 57.1093C68.8688 57.1518 68.8783 57.2071 68.9274 57.2751C68.9856 57.3563 68.965 57.3916 68.8656 57.3811C68.7288 57.3667 68.614 57.3213 68.5211 57.2447C68.509 57.2345 68.4953 57.2269 68.481 57.2223C68.4666 57.2177 68.4519 57.2163 68.4377 57.2182C68.1708 57.2548 67.9137 57.3258 67.6664 57.4312C67.6367 57.4444 67.6133 57.4675 67.6006 57.4959C67.4776 57.7831 67.5241 58.037 67.74 58.2575C67.861 58.3811 67.8358 58.456 67.6644 58.4822L67.21 58.5528C67.1919 58.5557 67.1753 58.5624 67.1625 58.5718C67.1497 58.5813 67.1413 58.5932 67.1384 58.6058C67.1305 58.6385 67.1538 58.6595 67.2081 58.6686C67.371 58.6968 67.5296 58.7409 67.684 58.8011C67.7979 58.8456 67.8018 58.8989 67.6958 58.9611L67.2512 59.2241C67.2393 59.231 67.2255 59.2343 67.2116 59.2334C67.1976 59.2325 67.1841 59.2276 67.1727 59.2192C67.0582 59.1328 66.933 59.0795 66.7969 59.0592C66.757 59.0533 66.6238 59.0438 66.3975 59.0308C66.0684 59.0124 65.7125 59.0716 65.3298 59.2084C65.2984 59.2195 65.2663 59.2287 65.2336 59.2359C64.6605 59.3595 64.0877 59.421 63.5153 59.4203C63.4822 59.4203 63.4503 59.4324 63.4256 59.4543C63.4008 59.4761 63.3849 59.5063 63.3808 59.5391C63.1937 60.9908 62.951 62.4877 62.6527 64.0297C62.6503 64.0422 62.6508 64.0551 62.654 64.0674C62.6572 64.0797 62.663 64.0912 62.671 64.1009C62.6791 64.1107 62.6892 64.1185 62.7006 64.1238C62.712 64.1292 62.7245 64.1319 62.7371 64.1318C64.1011 64.1226 65.4207 64.157 66.6958 64.2348C67.0687 64.2577 67.437 64.313 67.8008 64.4007C67.9369 64.434 67.9379 64.471 67.8037 64.5116L67.3376 64.6548C67.3238 64.659 67.3111 64.6662 67.3005 64.676C67.2898 64.6857 67.2815 64.6977 67.2762 64.7111C67.2708 64.7245 67.2685 64.7389 67.2694 64.7533C67.2704 64.7677 67.2746 64.7816 67.2817 64.7942C67.4884 65.1566 67.5656 65.5152 67.5133 65.8697C67.4969 65.981 67.4262 66.1468 67.3013 66.3673C67.1927 66.5603 67.1116 66.7641 67.0579 66.9787C66.9984 67.2194 66.9359 67.3823 66.8705 67.4674C66.6801 67.716 66.4086 67.8524 66.056 67.8766C65.3029 67.9276 64.5506 67.9175 63.7989 67.8462C63.2683 67.7965 62.7469 67.7843 62.2346 67.8099C62.2034 67.8114 62.1733 67.8216 62.1478 67.8393C62.1223 67.857 62.1024 67.8815 62.0904 67.91C61.845 68.4929 61.6945 69.0958 61.6389 69.7186C61.5892 70.2779 61.5643 70.5593 61.5643 70.5625C61.4996 71.0676 61.4276 71.5694 61.3485 72.0679C61.3468 72.0789 61.3474 72.09 61.3503 72.1007C61.3532 72.1114 61.3583 72.1213 61.3652 72.1298C61.3722 72.1383 61.3808 72.1453 61.3906 72.1502C61.4004 72.1551 61.4111 72.1578 61.4221 72.1582C61.9036 72.1772 62.3798 72.1818 62.8509 72.1719C62.8967 72.1706 63.2673 72.1487 63.9628 72.1062C64.4214 72.0781 64.7923 72.0856 65.0756 72.1288C65.6736 72.219 66.2428 72.2158 66.7831 72.119C66.9317 72.0921 66.9778 72.149 66.9215 72.2897C66.8221 72.5357 66.738 72.7804 66.6693 73.0237C66.6412 73.1245 66.6111 73.3155 66.579 73.5969C66.5561 73.7918 66.5129 73.9822 66.4495 74.168C66.3716 74.3931 66.2447 74.57 66.0687 74.6989C65.843 74.8638 65.6101 74.9475 65.37 74.9501C62.9742 74.9789 60.4705 74.9864 57.8588 74.9727C57.8286 74.9727 57.7994 74.962 57.7764 74.9426C57.7534 74.9232 57.7381 74.8963 57.7332 74.8667C57.671 74.4905 57.5762 74.1039 57.4486 73.7068C57.3976 73.5471 57.3802 73.3908 57.3966 73.2377C57.5189 72.0934 57.7234 70.9633 58.0099 69.8471C58.0328 69.7595 58.0384 69.6231 58.0266 69.4379C58.0188 69.2986 58.0341 69.1654 58.0727 69.0385C58.2311 68.5184 58.3279 67.9862 58.3632 67.4419C58.3776 67.2227 58.4365 67.029 58.5398 66.8609C58.5728 66.8077 58.5857 66.745 58.5762 66.6843C58.497 66.1661 58.5039 65.7075 58.5968 65.3084C58.9494 63.7965 59.1545 62.8479 59.2121 62.4625C59.3063 61.8331 59.393 61.3863 59.4721 61.122C59.7659 60.1472 59.9327 59.4246 59.9726 58.9542C60.0295 58.283 60.1542 57.7207 60.3465 57.2673C60.5055 56.8931 60.8068 56.6647 61.2503 56.5823C62.6857 56.3167 64.1816 56.265 65.738 56.4272C65.8394 56.4377 65.9166 56.4685 65.9696 56.5195C65.9949 56.5435 66.0238 56.5578 66.0511 56.5597C67.1227 56.6422 68.196 56.6811 69.2709 56.6765ZM58.7886 66.2101C58.7993 66.2096 58.8088 66.1949 58.8152 66.1692C58.8215 66.1434 58.8241 66.1088 58.8224 66.073C58.8207 66.0371 58.8149 66.0029 58.8061 65.9779C58.7974 65.9528 58.7865 65.9391 58.7759 65.9396C58.7652 65.9401 58.7557 65.9548 58.7493 65.9805C58.743 66.0063 58.7404 66.0409 58.7421 66.0767C58.7437 66.1126 58.7496 66.1468 58.7583 66.1718C58.7671 66.1969 58.778 66.2106 58.7886 66.2101Z" fill="#C8061B"/>
<path d="M114.628 74.1404C114.533 74.0724 114.428 74.041 114.313 74.0462C114.288 74.0403 114.263 74.0403 114.239 74.0462C114.173 74.0076 114.132 74.0308 114.115 74.1159C114.085 74.2762 114.061 74.4188 114.045 74.5438C114.029 74.6569 113.977 74.6775 113.888 74.6056C113.683 74.4407 113.557 74.4312 113.509 74.5771C113.497 74.6139 113.48 74.6427 113.462 74.6586C113.347 74.7593 113.269 74.7227 113.229 74.5487C113.206 74.4453 113.182 74.3413 113.16 74.2366C113.156 74.2226 113.148 74.2102 113.137 74.2015C113.126 74.1927 113.112 74.1882 113.098 74.1885C112.883 74.1918 112.772 74.2569 112.765 74.3838C112.764 74.4011 112.759 74.4178 112.749 74.4325C112.74 74.4472 112.727 74.4596 112.711 74.4685C112.695 74.4774 112.677 74.4826 112.659 74.4837C112.64 74.4849 112.622 74.4819 112.604 74.4751L111.975 74.2297C111.961 74.2245 111.949 74.2161 111.941 74.2056C111.933 74.1951 111.928 74.1829 111.928 74.1708L111.929 73.6988C111.915 73.0681 111.933 72.4384 111.983 71.8097C112.026 71.2792 112.041 70.7476 112.027 70.215C112.105 69.3528 112.214 68.4941 112.353 67.639C112.607 66.078 112.839 64.5134 113.047 62.9452C113.168 62.0306 113.354 61.0984 113.606 60.1484C113.608 60.1407 113.608 60.1325 113.607 60.1246C113.605 60.1167 113.602 60.1093 113.597 60.1029C113.592 60.0964 113.586 60.0912 113.579 60.0875C113.572 60.0839 113.564 60.0819 113.556 60.0817C112.906 60.0601 112.243 60.0277 111.565 59.9845C111.465 59.978 111.363 59.9149 111.259 59.7951C111.237 59.7701 111.21 59.7521 111.181 59.7431C111.018 59.6908 110.852 59.6437 110.686 59.6018C110.5 59.5547 110.413 59.4386 110.423 59.2534C110.429 59.12 110.432 59.0516 110.432 59.0483C110.412 58.4118 110.442 57.8086 110.521 57.2387C110.537 57.121 110.602 57.0447 110.715 57.0101C111.433 56.7889 112.126 56.6519 112.792 56.5989C114.797 56.4399 116.244 56.35 117.134 56.329C117.822 56.3127 118.509 56.3277 119.195 56.3742C119.848 56.418 120.455 56.5345 121.017 56.7235C121.062 56.7387 121.102 56.7664 121.132 56.8032C121.162 56.84 121.18 56.8845 121.186 56.9316C121.266 57.6349 121.267 58.261 121.189 58.8099C121.169 58.9433 121.105 59.0496 120.997 59.1288C120.782 59.2839 120.556 59.4153 120.318 59.5233C120.111 59.6169 119.862 59.6878 119.572 59.7362C118.861 59.8553 118.115 59.9135 117.334 59.9109C117.308 59.9107 117.283 59.9198 117.263 59.9368C117.243 59.9537 117.23 59.9773 117.226 60.0032C117.144 60.5553 117.075 61.0902 117.018 61.6077C116.916 62.5314 116.855 63.0676 116.836 63.2161C116.503 65.7172 116.052 68.1971 115.481 70.6557C115.283 71.5134 115.088 72.372 114.899 73.2317C114.83 73.5411 114.74 73.8441 114.628 74.1404Z" fill="#C8061B"/>
<path d="M81.5876 59.2872C81.6295 59.3284 81.6713 59.37 81.7132 59.4118C81.7557 59.455 81.7858 59.5044 81.8035 59.56C82.077 60.4099 82.1434 61.3284 82.0027 62.3156C81.9065 62.9915 81.7515 63.6159 81.5376 64.189C81.3217 64.7661 81.0116 65.3225 80.6072 65.8583C79.9556 66.7212 79.1689 67.4353 78.2471 68.0006C77.6989 68.3368 77.1016 68.5972 76.4552 68.7817C75.7558 68.9819 75.0391 69.1056 74.305 69.1527C74.2135 69.1586 74.1291 69.1726 74.0519 69.1949C73.9734 69.2164 73.8912 69.2407 73.8055 69.2675C73.7642 69.28 73.7268 69.3033 73.6974 69.335C73.6679 69.3667 73.6473 69.4057 73.6377 69.448C73.5082 70.0355 73.3852 70.6217 73.2687 71.2066C73.113 71.9904 72.9148 72.7293 72.6741 73.4235C72.6256 73.5622 72.5605 73.7015 72.4788 73.8415C72.4101 73.9599 72.3093 74.0735 72.1765 74.1821C71.9894 74.3351 71.7869 74.5033 71.5691 74.6865C71.5496 74.7027 71.5263 74.7136 71.5014 74.7183C71.4765 74.7229 71.4508 74.7211 71.4268 74.713C71.2043 74.6377 70.9943 74.5896 70.7967 74.5687C70.7909 74.568 70.6895 74.5661 70.4925 74.5628C70.1667 74.5569 69.9168 74.4401 69.7428 74.2125C69.6224 74.0555 69.5527 73.8134 69.5338 73.4863C69.5089 73.0637 69.519 72.7012 69.5642 72.399C69.818 70.711 70.0306 69.0182 70.202 67.3205C70.2557 66.788 70.3784 65.7984 70.5701 64.3519C70.7271 63.1645 70.9053 62.1308 71.1049 61.2509C71.1055 61.2476 71.2161 60.8312 71.4366 60.0016C71.5674 59.511 71.6548 59.072 71.6986 58.6847C71.7496 58.2313 71.8209 57.7913 71.9125 57.3648C71.9216 57.3236 71.9406 57.2852 71.968 57.2529C71.9953 57.2206 72.0302 57.1953 72.0695 57.1793C72.3581 57.0622 72.6335 56.9604 72.8958 56.8741C73.1549 56.7897 73.4421 56.738 73.7575 56.719C74.0682 56.7007 74.379 56.684 74.6897 56.669C74.8768 56.6605 75.1879 56.6386 75.623 56.6032C76.202 56.5568 76.693 56.5555 77.096 56.5993C77.8235 56.6785 78.5513 56.9104 79.2795 57.2951C79.498 57.4102 79.7446 57.5715 80.0194 57.7789C80.4034 58.0694 80.6373 58.2506 80.7211 58.3225C80.9834 58.5496 81.2157 58.8037 81.4178 59.0851C81.4734 59.1623 81.53 59.2296 81.5876 59.2872ZM74.3365 64.4432C74.29 64.8469 74.2671 65.2518 74.2678 65.6581C74.268 65.6715 74.2733 65.6843 74.2826 65.6939C74.2918 65.7036 74.3044 65.7094 74.3178 65.7101C74.8065 65.7337 75.288 65.6947 75.7623 65.5933C76.0299 65.5358 76.2537 65.4494 76.4336 65.3343C76.6299 65.2086 76.816 65.051 76.992 64.8612C77.8287 63.9564 78.2154 62.8953 78.1519 61.6778C78.1297 61.2519 77.9802 60.9431 77.7034 60.7514C77.3731 60.523 76.815 60.2914 76.0293 60.0566C75.6093 59.931 75.2102 59.8966 74.832 59.9535C74.709 59.9719 74.6407 60.0428 74.6269 60.1665C74.5321 61.0059 74.4774 61.804 74.463 62.561C74.4506 63.1903 74.4084 63.8177 74.3365 64.4432Z" fill="#C8061B"/>
</svg>
