<svg width="16" height="27" fill="none" xmlns="http://www.w3.org/2000/svg"><path d="M7.609 4.892a2.76 2.76 0 011.957.815 2.787 2.787 0 010 3.932 2.761 2.761 0 01-3.915 0 2.788 2.788 0 010-3.932 2.761 2.761 0 011.958-.815zm0 9.486c3.685 0 6.673-3.01 6.673-6.705 0-3.695-2.995-6.704-6.673-6.704S.935 3.978.935 7.673s2.996 6.705 6.674 6.705zm2.7 5.478a12.465 12.465 0 003.867-1.6 1.96 1.96 0 00.862-1.23 1.973 1.973 0 00-.782-2.038 1.951 1.951 0 00-2.173-.054 8.456 8.456 0 01-8.994 0 1.953 1.953 0 00-2.974 1.325 1.974 1.974 0 00.881 1.997 12.173 12.173 0 003.868 1.6l-3.716 3.756a1.971 1.971 0 000 2.78 1.953 1.953 0 002.768 0l3.67-3.695 3.67 3.688a1.956 1.956 0 002.133.426 1.957 1.957 0 001.06-1.064 1.974 1.974 0 00-.425-2.143l-3.738-3.756" fill="#3F3740" fill-opacity=".3"/></svg>