<?xml version="1.0" encoding="utf-8"?><svg viewBox="0 0 211 76" xmlns="http://www.w3.org/2000/svg" xmlns:xlink="http://www.w3.org/1999/xlink"><style>:root>svg{display:none}:root>svg:target{display:block}</style><svg fill="none" viewBox="0 0 16 10" id="arrow-down" xmlns="http://www.w3.org/2000/svg"><path d="M2.265.707 2.09.53l-.177.177L.823 1.795l-.177.177.177.177L7.91 9.23l.177.177.177-.177 7.08-7.081.178-.177-.177-.177L14.255.707 14.078.53l-.176.177-5.818 5.818L2.265.707Z" fill="#C8061B" stroke="#C8061B" stroke-width=".5"/></svg><svg fill="none" viewBox="0 0 20 32" id="arrow-left" xmlns="http://www.w3.org/2000/svg"><path d="M19.474 5.392 15.04.956 0 16.006l15.039 15.038 4.435-4.436L8.866 16 19.474 5.392Z" fill="#3F3740" fill-opacity=".3"/></svg><svg fill="none" viewBox="0 0 20 32" id="arrow-right" xmlns="http://www.w3.org/2000/svg"><path d="M.475 5.392 4.91.956l15.038 15.05L4.91 31.043.475 26.608 11.083 16 .475 5.392Z" fill="#3F3740" fill-opacity=".3"/></svg><svg fill="none" viewBox="0 0 211 76" id="logo" xmlns="http://www.w3.org/2000/svg"><path d="M5.243 0h.417l.534.02h.687L9.954 0h.81c.253.041.507.041.76 0h.024c.254.041.508.041.76 0h.025c.254.041.508.041.761 0h.024c.254.041.508.041.761 0h.025c.253.041.507.041.76 0h2.38c.188.041.376.041.564 0h2.576c.189.041.377.041.564 0h18.376l.78.02L42.828 0h.122l1.172.02.534.027c.013 0 .025.007.034.018.009.01.013.025.013.04l-.016 2.216a.13.13 0 0 1-.057.106c-.309.207-.605.426-.889.66l-.61.502a405.41 405.41 0 0 1-2.896 2.27c-.025.02-.04.013-.041-.019a31.408 31.408 0 0 1-.044-2.63.086.086 0 0 0-.087-.088l-31.876-.03a.132.132 0 0 0-.132.124c-.04.636-.054 1.28-.044 1.933l.022 1.576a974.562 974.562 0 0 1-.015 4.585c-.034 6.46-.034 12.921 0 19.382.007 1.486.03 2.948.068 4.386 0 .028.013.054.033.073.02.02.046.03.074.03h31.884a.078.078 0 0 0 .078-.077c-.008-4.497-.01-8.953-.005-13.367 0-.18.068-.324.204-.434a254.866 254.866 0 0 1 4.266-3.389c.044-.034.066-.023.066.033l-.024 21.675a.052.052 0 0 1-.05.052 25.8 25.8 0 0 1-2.453.042l-.466-.066-.417-.032c-.282-.03-.634-.045-1.055-.045-6.738-.005-13.477.005-20.215.028-4.784-.004-9.567-.006-14.35-.004-.198 0-.443.016-.738.047a8.71 8.71 0 0 1-.737.047l-.607-.018a.049.049 0 0 1-.035-.017.06.06 0 0 1-.014-.04C3.515 19.988 3.513 7.233 3.52 1.349c0-.528-.012-.942-.038-1.244-.001-.008 0-.015.001-.022a.06.06 0 0 1 .009-.02.048.048 0 0 1 .014-.014.04.04 0 0 1 .018-.006l.315-.022L5.243 0Z" fill="#C8061B"/><path d="M23.265 22.51a3822.87 3822.87 0 0 0 12.647-10.086c4.832-3.871 9.679-7.737 14.54-11.598a.064.064 0 0 1 .092.011 215.31 215.31 0 0 0 4.115 5.192.051.051 0 0 1-.005.07c-.35.323-.914.794-1.694 1.414a13637.304 13637.304 0 0 0-32.65 26.055.092.092 0 0 1-.081.017.091.091 0 0 1-.062-.055 4324.05 4324.05 0 0 1-7.11-18.46c-.18-.47-.307-.835-.38-1.094a.054.054 0 0 1 .032-.064l6.14-2.346a.118.118 0 0 1 .152.069c1.232 3.242 2.467 6.479 3.703 9.71.201.524.367.908.499 1.152a.04.04 0 0 0 .027.02.042.042 0 0 0 .035-.008ZM92.408 39.716l-1.002-.056a6.122 6.122 0 0 0-1.203-.098l-.953.018a55.534 55.534 0 0 0-1.928-.004h-1.397c-.416 0-.882.014-1.399.04-.044.002-.077.013-.098.032a.235.235 0 0 1-.04.031.075.075 0 0 1-.033.012l-.755.008-.315-.022a.067.067 0 0 1-.038-.017.119.119 0 0 1-.03-.04 745.344 745.344 0 0 1-5.806-12.698.138.138 0 0 0-.096-.08.72.72 0 0 0-.41.012.066.066 0 0 0-.034.025.078.078 0 0 0-.014.041c-.02.38-.029.647-.028.803.009 3.977.003 7.944-.019 11.9a.071.071 0 0 1-.072.073l-1.406.004a.533.533 0 0 0-.242-.035l-2.04-.077-3.827.013-1.427-.028-.114-.442-.004-29.636a.05.05 0 0 1 .049-.05c3.007-.037 6.032-.039 9.073-.005.013 0 .025.005.034.014.008.009.013.02.013.033.008 3.86.01 7.73.01 11.612 0 .132.076.18.229.144a.311.311 0 0 0 .225-.183L82.594 9.5a.137.137 0 0 1 .123-.079l9.807.03a.052.052 0 0 1 .046.077l-7.34 13.607a.234.234 0 0 0 0 .223l8.764 16.289a.035.035 0 0 1 0 .033.035.035 0 0 1-.029.017l-1.557.02ZM120.078 39.716l-1.275-.054a11.408 11.408 0 0 0-1.821-.04 14.487 14.487 0 0 0-2.105-.021l-1.09-.002-1.658.002h-.441l-.145.02c-.002-7.278.003-14.556.016-21.834 0-.248-.022-.492-.068-.734a.039.039 0 0 0-.016-.028.044.044 0 0 0-.031-.009c-.228.023-.452.04-.672.05-.17.007-.394.001-.671-.016-.395-.025-.79-.034-1.186-.028a.72.72 0 0 0-.441.025c-.964.054-1.97.071-3.017.05a.07.07 0 0 0-.052.021.079.079 0 0 0-.017.024.09.09 0 0 0-.005.028l-.025 22.446c0 .02-.008.038-.021.052a.073.073 0 0 1-.052.021l-1.939.01-.613-.049-.736-.049a33.05 33.05 0 0 0-2.993 0 21.997 21.997 0 0 0-2.663.078.123.123 0 0 1-.134-.123V9.506a.059.059 0 0 1 .05-.058c.195-.027.383-.04.563-.04 7.933.016 15.861.029 23.784.037.008 0 .017.002.024.005a.063.063 0 0 1 .021.014.066.066 0 0 1 .018.044V39.64c0 .015-.006.03-.018.04a.068.068 0 0 1-.044.018l-.527.019ZM131.071 39.724l-.491-.073-.294-.066-5.7-.022-.088-1.584a.248.248 0 0 0-.027-.093.705.705 0 0 1-.049-.251 4.043 4.043 0 0 1 .043-.814c.049-.293.074-.51.075-.65.018-7.72.012-15.441-.017-23.162a49.323 49.323 0 0 0-.066-1.579 14.1 14.1 0 0 1 .04-2c1.636.022 3.272.023 4.905.005.798-.01 1.452-.014 1.963-.014 2.96 0 5.921.001 8.881.003.404 0 .808.01 1.212.031.479.025.878.08 1.196.163.776.204 1.537.57 2.284 1.098.693.49 1.219 1.02 1.578 1.591a13.14 13.14 0 0 1 1.139 2.27c.226.586.408 1.213.547 1.883.35 1.693.421 3.398.213 5.115a12.31 12.31 0 0 1-.379 1.925 11.37 11.37 0 0 1-1.994 3.91c-.853 1.09-1.976 1.791-3.367 2.104-1.257.282-2.623.448-4.097.499-.333.011-.987.023-1.963.035-.968.012-1.951.005-2.949-.02a.067.067 0 0 0-.063.04.058.058 0 0 0-.005.026l-.006 9.547a.052.052 0 0 1-.015.035.047.047 0 0 1-.034.015l-2.472.033Zm7.586-17.907c.422-.431.721-.915.897-1.454.178-.54.222-1.09.131-1.648a3.384 3.384 0 0 0-.924-1.822 4.011 4.011 0 0 0-1.065-.802 6.037 6.037 0 0 0-2.478-.675 11.689 11.689 0 0 0-1.502.024.1.1 0 0 0-.093.1l-.025 7.57a.059.059 0 0 0 .049.058 7.152 7.152 0 0 0 2.877-.12 4.419 4.419 0 0 0 2.133-1.231ZM169.322 39.71c-.065-.049-.131-.06-.198-.035l-1.203-.095-5.765.021-.217-.004c-.035-.051-.052-.15-.053-.294a178.48 178.48 0 0 1 0-3.705c.003-.155-.07-.211-.221-.167a16.39 16.39 0 0 0-1.447.018c-.656.037-1.311.042-1.965.016-.847-.034-1.498-.093-1.954-.176-1.481-.271-2.743-.985-3.787-2.141a10.33 10.33 0 0 1-.961-1.244 13.571 13.571 0 0 1-2.22-6.342 18.259 18.259 0 0 1-.069-1.96c.028-1.54.298-3.044.81-4.51.591-1.697 1.514-3.128 2.767-4.292a6.359 6.359 0 0 1 3.03-1.582c.455-.098 1.1-.152 1.936-.161a50.757 50.757 0 0 1 1.947.015c.63.018 1.259.01 1.889-.024a.34.34 0 0 0 .174-.004.058.058 0 0 0 .034-.024.076.076 0 0 0 .014-.042 44.585 44.585 0 0 0-.061-3.561l9.755.034a.07.07 0 0 1 .069.07v3.478c0 .01.002.021.006.03.004.01.01.02.018.027a.076.076 0 0 0 .056.023c1.31-.029 2.599-.035 3.87-.02.866.011 1.517.063 1.953.156a6.63 6.63 0 0 1 3.107 1.597 8.235 8.235 0 0 1 1.462 1.751c.836 1.33 1.426 2.85 1.77 4.56.269 1.336.367 2.622.293 3.857-.04.646-.121 1.294-.246 1.946a13.902 13.902 0 0 1-1.476 4.079 10.2 10.2 0 0 1-1.953 2.552 7.081 7.081 0 0 1-1.581 1.15 6.259 6.259 0 0 1-1.98.646c-.62.091-1.372.133-2.257.124-.94-.01-1.906-.028-2.899-.052a.116.116 0 0 0-.119.114l-.024 4.079c0 .02-.009.04-.023.055a.082.082 0 0 1-.056.023l-2.225.013Zm-7.513-12.134a15.67 15.67 0 0 1 .033-1.3 25.425 25.425 0 0 0-.05-4l-.027-2.526a.102.102 0 0 0-.01-.045.102.102 0 0 0-.028-.037.115.115 0 0 0-.087-.027 5.418 5.418 0 0 0-1.74.473c-.341.161-.593.344-.756.55-.391.493-.644 1.103-.757 1.83a8.72 8.72 0 0 0 .076 3.161c.054.258.129.502.225.732.099.238.21.47.334.695.172.315.433.576.785.782a4.75 4.75 0 0 0 1.896.612.082.082 0 0 0 .059-.017.08.08 0 0 0 .019-.023.07.07 0 0 0 .007-.029l.021-.831Zm13.258-2.448c.104-1.13.061-2.195-.129-3.195a2.422 2.422 0 0 0-.863-1.473c-.278-.227-.643-.414-1.093-.56a5.633 5.633 0 0 0-1.218-.252.105.105 0 0 0-.08.026.104.104 0 0 0-.034.078l-.017 8.677c0 .006.001.012.004.018.002.005.006.01.01.015.005.004.01.007.016.009a.043.043 0 0 0 .018.002 5.11 5.11 0 0 0 1.521-.4 2.961 2.961 0 0 0 1.024-.706c.255-.274.453-.621.595-1.042a5.26 5.26 0 0 0 .246-1.197ZM14.879 70.121l.004.119-.071 1.254a.326.326 0 0 0 .14.288c.2.156.285.345.253.569-.028.198-.06.395-.097.592a.278.278 0 0 0-.005.09c.015.144.058.139.129-.016.286-.623.566-1.249.84-1.877a87.62 87.62 0 0 1 2.367-4.992 93.368 93.368 0 0 0 2.007-4.157c.375-.829.66-1.418.852-1.768.426-.773.86-1.427 1.303-1.962.54-.653 1.06-1.18 1.557-1.582.1-.08.227-.138.383-.172.18-.04.307-.078.384-.113.122-.057.243-.117.362-.18.242-.13.502-.176.777-.14.466.06.753.112.86.157a.714.714 0 0 1 .352.343c.054.102.094.254.12.458.08.602.166 1.073.259 1.413.483 1.776.796 3.58.938 5.416.026.339.107.878.241 1.617.066.359.12.722.161 1.09.028.244.058.487.09.73.032.253.052.497.06.733.054 1.586.09 2.56.11 2.92.005.08.039.195.102.344l.025.22a3.593 3.593 0 0 0-.075.59c-.01.234-.012.364-.008.39a.39.39 0 0 0 .148.255c.121.096.19.156.208.183.142.215.142.442 0 .682a.1.1 0 0 1-.033.033.073.073 0 0 1-.04.012c-.075-.004-.124-.048-.146-.134-.007-.03-.018-.03-.032-.005-.229.43-.368.891-.419 1.381a.082.082 0 0 1-.078.074c-.953.038-1.947.037-2.981-.005a.105.105 0 0 1-.101-.101 19.584 19.584 0 0 0-.348-3.06 33.768 33.768 0 0 1-.462-3.077 36.458 36.458 0 0 1-.095-1.702 20.226 20.226 0 0 0-.143-1.7 38.31 38.31 0 0 1-.2-1.82 65.824 65.824 0 0 1-.096-1.992c-.007-.177-.058-.19-.153-.042-.433.67-.844 1.414-1.234 2.232-.6 1.258-1.187 2.523-1.76 3.794-.096.214-.288.693-.574 1.438-.263.68-.585 1.36-.969 2.04a14.014 14.014 0 0 0-1.023 2.287c-.136.39-.233.659-.292.806-.103.26-.212.524-.326.793a.113.113 0 0 1-.084.067 4.381 4.381 0 0 1-1.915-.097.569.569 0 0 1-.408-.36c-.04-.108-.124-.156-.254-.144l-.589.053a.137.137 0 0 0-.081.036.126.126 0 0 0-.04.078l-.045.42a.057.057 0 0 1-.019.035.062.062 0 0 1-.038.016c-.941.044-1.951.042-3.03-.006a.18.18 0 0 1-.166-.125 13.866 13.866 0 0 1-.464-1.777c-.151-.784-.306-1.572-.465-2.362-.024-.118-.096-.184-.216-.197a46.819 46.819 0 0 0-5.25-.239.273.273 0 0 0-.25.15 14.148 14.148 0 0 0-.954 2.125c-.079.22-.202.498-.368.834-.082.166-.17.28-.262.34a1.077 1.077 0 0 1-.42.157.658.658 0 0 0-.387.227l-.115.129c-.17.175-.327.36-.474.556-.042.057-.071.06-.09.01a.11.11 0 0 1 .003-.065c.036-.114.067-.23.092-.345.095-.423-.029-.72-.37-.891l-.28-.084c-.18-.053-.328-.177-.444-.371a.094.094 0 0 0-.037-.035.121.121 0 0 0-.052-.014l-.582-.027a.095.095 0 0 1-.042-.012.101.101 0 0 1-.033-.029.108.108 0 0 1-.019-.088c.1-.48.236-.934.408-1.364.29-.728.61-1.445.958-2.148a127.846 127.846 0 0 1 2.2-4.281 59.06 59.06 0 0 0 1.855-3.67 28.819 28.819 0 0 1 2.212-4.015A11.417 11.417 0 0 1 9.65 55.08c.187-.164.372-.288.554-.372.203-.094.414-.17.633-.229.104-.027.208-.072.31-.134.136-.081.243-.123.322-.127.482-.017.932.04 1.35.172.24.076.38.249.42.518.12.796.262 1.587.425 2.375.167.806.283 1.45.35 1.93.262 1.894.457 3.796.585 5.704.036.538.065 1.191.087 1.96.02.715.042 1.43.064 2.144.001.046.02.186.055.418.022.142.02.285-.006.43a.255.255 0 0 0 .08.251Zm-7.751-4.206a.35.35 0 0 0-.227.024.333.333 0 0 0-.162.143c-.08.133-.146.29-.197.474a.088.088 0 0 0 .018.082.09.09 0 0 0 .08.03 7.293 7.293 0 0 1 2.017.038c.396.066.793.127 1.19.183.195.028.265-.032.211-.18a.175.175 0 0 0-.06-.072c-.102-.075-.163-.202-.182-.382a.074.074 0 0 1 .07-.082.249.249 0 0 0 .17-.073.093.093 0 0 0 .023-.038.125.125 0 0 0 .006-.048 739.92 739.92 0 0 0-.43-5.244 1.867 1.867 0 0 0-.1-.467c-.022-.06-.046-.062-.074-.004a216.725 216.725 0 0 0-2.359 5.06c-.056.125-.032.282.072.474.042.079.02.106-.066.082ZM105.211 55.794l.241.118c.108.06.223.091.348.093.175.002.293.066.354.194a39.36 39.36 0 0 1 .428 1.941.083.083 0 0 0 .019.038c.01.011.022.02.037.026.13.053.19.152.18.297l-.01.172c.024 1.158.064 2.315.119 3.472.025.52.045 1.174.061 1.962.028 1.344.106 2.684.235 4.023.032.331.06 1.247.084 2.749.017 1.088.017 1.742 0 1.962a7.05 7.05 0 0 1-.46 2.02.17.17 0 0 1-.158.108c-.742 0-1.48.01-2.214.03a3.759 3.759 0 0 1-.718-.058.064.064 0 0 1-.036-.02.067.067 0 0 1-.018-.037l-.28-1.867a.052.052 0 0 0-.02-.033.06.06 0 0 0-.039-.012c-.659.034-1.319.05-1.979.047-.057 0-.134.009-.233.026a1.105 1.105 0 0 1-.186.017.058.058 0 0 1-.037-.014.06.06 0 0 1-.019-.036c-.057-.316-.196-.36-.419-.128a.163.163 0 0 1-.041.031.092.092 0 0 1-.042.01l-.374-.015a.856.856 0 0 1-.241-.29 1.003 1.003 0 0 0-.702-.038 5.232 5.232 0 0 0-.39.14.634.634 0 0 0-.329.272c-.264.47-.492 1.076-.684 1.818a.242.242 0 0 1-.051.106c-.06.063-.097.012-.11-.153a.68.68 0 0 1 .025-.239c.136-.475.282-.941.44-1.397.032-.09.07-.16.116-.207a.037.037 0 0 0 .009-.014.033.033 0 0 0 .001-.015.028.028 0 0 0-.005-.014.025.025 0 0 0-.012-.008c-.14-.05-.233-.004-.28.135a11.62 11.62 0 0 0-.474 1.907.095.095 0 0 1-.098.08l-1.846-.024a.053.053 0 0 1-.035-.014.055.055 0 0 1-.018-.035 3.756 3.756 0 0 0-.594-1.738.057.057 0 0 0-.032-.024.063.063 0 0 0-.04.001.631.631 0 0 1-.484.008.207.207 0 0 1-.121-.22c.04-.266.108-.524.202-.773l.15-.401c.402-1.17.843-2.323 1.322-3.462a.61.61 0 0 1 .353-.343.118.118 0 0 0 .067-.06c.205-.439.384-.888.536-1.346l.403-1.219c.25-.67.552-1.403.905-2.2a8.96 8.96 0 0 1 .456-.913c.417-.702.84-1.4 1.269-2.093.383-.62.76-1.154 1.129-1.602.658-.8 1.441-1.66 2.347-2.58.105-.106.2-.188.287-.246a.75.75 0 0 1 .352-.107c.464-.041.915.023 1.354.192Zm-5.783 13.985c.735.125 1.508.24 2.32.345.014.002.197.043.549.123.189.043.382.05.577.02a.066.066 0 0 0 .037-.02.056.056 0 0 0 .015-.037c.099-1.404.133-2.392.101-2.963a47.844 47.844 0 0 1-.049-3.557c.008-.35.014-1.174.018-2.473a.128.128 0 0 0-.028-.088c-.044-.048-.089-.055-.138-.023a.265.265 0 0 0-.082.117c-.285.667-.472 1.078-.561 1.234-.245.427-.406.813-.484 1.159-.136.602-.323 1.12-.56 1.55a.2.2 0 0 1-.099.098.27.27 0 0 1-.147.012.065.065 0 0 0-.04.007.06.06 0 0 0-.026.028 75.63 75.63 0 0 0-1.567 4.193c-.053.155.002.247.164.275ZM181.111 68.353l-3.899-.24a.056.056 0 0 0-.039.013.064.064 0 0 0-.02.036c-.053.44-.123.846-.212 1.218a589.17 589.17 0 0 0-1.063 4.566.113.113 0 0 1-.054.07l-.312.168a.128.128 0 0 0-.059.07l-.102.288a.117.117 0 0 1-.025.039.104.104 0 0 1-.038.025 6.75 6.75 0 0 1-1.375.333.168.168 0 0 1-.185-.127 6.77 6.77 0 0 1-.183-2.07c.041-.582.087-1.163.138-1.743l.083-1.078c.038-.505.097-1.008.176-1.51a33.93 33.93 0 0 0 .213-1.504c.073-.647.184-1.558.332-2.733.228-1.81.481-3.408.759-4.797.067-.337.141-.597.222-.778a3.12 3.12 0 0 1 .424-.699c.182-.227.313-.477.396-.748l.181-.602c.119-.288.268-.589.447-.904a.104.104 0 0 1 .122-.047.786.786 0 0 0 .383.039 1.02 1.02 0 0 1 .611.097.665.665 0 0 0 .442.037.042.042 0 0 1 .034.006.04.04 0 0 1 .012.013c.003.005.004.01.004.016.034 1.24.04 1.987.017 2.24-.133 1.454-.264 2.476-.392 3.066a27.044 27.044 0 0 0-.553 4.088.135.135 0 0 0 .035.098.135.135 0 0 0 .096.04l3.867-.03a.146.146 0 0 0 .091-.033.14.14 0 0 0 .049-.083c.147-.745.246-1.469.297-2.17a5.62 5.62 0 0 1 .071-.575c.056-.304.087-.495.095-.574.064-.703.137-1.225.219-1.564.15-.618.327-1.227.533-1.829.139-.405.233-.821.281-1.247.012-.112.095-.201.249-.269a.122.122 0 0 0 .067-.072.784.784 0 0 1 .187-.304.959.959 0 0 1 .3-.171c.235-.095.469-.187.704-.278.31-.121.627-.146.951-.074.015.004.028.01.038.021.011.01.019.024.023.038.077.274.146.55.207.828l.115.453c.145.568.137 1.182-.023 1.843a35.185 35.185 0 0 0-.58 3.15c-.13.91-.23 1.557-.299 1.938a82.003 82.003 0 0 1-2.168 9.076.124.124 0 0 1-.056.072l-.344.206a.136.136 0 0 0-.059.073c-.053.14-.128.264-.225.374a.543.543 0 0 1-.357.173c-.099.012-.198.021-.296.027a1.01 1.01 0 0 0-.283.069.743.743 0 0 1-.481.012.08.08 0 0 1-.037-.023.084.084 0 0 1-.02-.04 7.795 7.795 0 0 1-.143-1.982c.007-.115.028-.388.064-.818.021-.25.054-.52.099-.813.119-.776.216-1.555.292-2.337a.062.062 0 0 0-.001-.02.041.041 0 0 0-.01-.016.05.05 0 0 0-.014-.012.049.049 0 0 0-.019-.005ZM37.163 63.174c.314.037.675.023 1.08-.043a7.042 7.042 0 0 1 1.748-.047c.038.003.186.037.441.102.163.041.348.05.555.025.128-.015.226.048.292.188l.129.267a.133.133 0 0 0 .072.06c.378.156.722.436 1.032.84a6.39 6.39 0 0 1 .947 1.684 4.96 4.96 0 0 1 .282 1.878 6.932 6.932 0 0 1-.907 3.228 5.255 5.255 0 0 1-1.685 1.81.375.375 0 0 0-.168.266.384.384 0 0 1-.311.337.17.17 0 0 0-.081.044l-.339.358a.147.147 0 0 1-.08.045c-.442.077-.835.18-1.178.311a5.184 5.184 0 0 1-2.13.347 18.72 18.72 0 0 1-2.43-.281 12.293 12.293 0 0 0-.954-.109.78.78 0 0 1-.45-.19c-.17-.145-.258-.22-.262-.222a5.761 5.761 0 0 1-1.171-1.14.259.259 0 0 1-.025-.307 7.677 7.677 0 0 0 .767-2.007c.04-.173.137-.82.29-1.94.337-2.452.637-4.344.9-5.676.223-1.128.403-2.158.54-3.09.073-.5.167-.977.281-1.432.16-.638.261-1.027.304-1.165.122-.393.289-.76.5-1.103a.663.663 0 0 1 .478-.31 3.237 3.237 0 0 1 1.281.034c.152.034.31.105.472.21.146.096.293.19.44.285a.16.16 0 0 1 .06.072c.073.182.1.394.084.636a15.23 15.23 0 0 1-.326 2.274 44.512 44.512 0 0 0-.382 1.916l-.068.604c-.027.244-.09.525-.186.843-.032.105-.005.222.081.352a.106.106 0 0 0 .077.046Zm-1.81 8.097a.89.89 0 0 0 .316.104c.444.055.882.139 1.314.251.437.115.833.054 1.189-.182l.197-.132c.225-.135.441-.24.648-.318.452-.17.812-.432 1.08-.786.241-.318.394-.717.46-1.195a3.933 3.933 0 0 0-.21-1.865c-.13-.368-.344-.632-.64-.793-.152-.083-.387-.161-.705-.235a3.727 3.727 0 0 0-.74-.093c-.352-.01-.703-.018-1.053-.026-.227-.005-.4.03-.518.105a.806.806 0 0 0-.343.454c-.207.65-.37 1.368-.489 2.156-.108.716-.216 1.222-.326 1.518-.11.296-.184.616-.22.963a.075.075 0 0 0 .04.074ZM90.215 68.444a4.51 4.51 0 0 0-.51-.044c-1.094-.053-2.214-.105-3.36-.157a.085.085 0 0 0-.087.065 585.244 585.244 0 0 0-1.123 5.116c-.057.266-.142.48-.254.642a2.72 2.72 0 0 1-.299.362.97.97 0 0 1-.391.236c-.44.147-.77.242-.988.286-.204.041-.32-.049-.345-.27a15.658 15.658 0 0 1-.1-2.136c.012-.526.044-1.18.099-1.96.053-.776.146-1.486.278-2.13a9.78 9.78 0 0 0 .153-.863c.054-.582.11-1.163.167-1.745.214-2.133.531-4.25.951-6.352.095-.474.284-.906.566-1.296a3.93 3.93 0 0 0 .55-1.08c.128-.394.284-.79.466-1.184a.088.088 0 0 1 .084-.051 9.679 9.679 0 0 1 1.52.19.068.068 0 0 1 .054.068c-.014.544.002 1.064.047 1.562.019.21.007.463-.035.762-.07.483-.104.728-.105.736-.045.403-.09.805-.138 1.206-.044.378-.106.777-.185 1.198a69.317 69.317 0 0 0-.445 2.624 6.16 6.16 0 0 0-.045 1.197c0 .013.006.025.016.034.01.008.022.013.035.013h3.934a.11.11 0 0 0 .072-.026.104.104 0 0 0 .035-.067c.095-.865.202-1.706.322-2.525.08-.554.145-1.11.194-1.668.047-.536.188-1.123.421-1.76.28-.763.556-1.526.83-2.288.047-.129.104-.234.172-.316a.63.63 0 0 1 .298-.175c.343-.113.687-.222 1.032-.329.167-.05.337-.064.51-.039a.2.2 0 0 1 .165.147c.169.64.302 1.277.4 1.914a2.47 2.47 0 0 1-.061.96c-.19.77-.342 1.546-.46 2.33-.257 1.72-.598 3.665-1.025 5.836a28.705 28.705 0 0 1-.607 2.554c-.27.913-.5 1.837-.693 2.77a1.896 1.896 0 0 1-.17.429 1.241 1.241 0 0 1-.282.351c-.179.163-.361.363-.546.602a.252.252 0 0 1-.144.091l-1.097.246a.141.141 0 0 1-.171-.12 15.072 15.072 0 0 1-.136-1.604c-.016-.475.012-1.01.083-1.604.105-.897.234-1.79.387-2.68a.052.052 0 0 0-.008-.037.048.048 0 0 0-.031-.021ZM137.546 73.111c.065-.137.011-.199-.163-.186a.502.502 0 0 1-.206-.02 1.057 1.057 0 0 1-.489-.382.619.619 0 0 0-.414-.26c-.104-.018-.166-.065-.187-.141a.503.503 0 0 0-.14-.235.485.485 0 0 1-.171-.33l.048-.343c.171-1.198.361-2.392.573-3.584.125-.707.232-1.352.321-1.936.39-2.556.791-4.858 1.204-6.906a5.012 5.012 0 0 1 .661-1.625.174.174 0 0 1 .07-.065 18.728 18.728 0 0 1 1.686-.775 4.897 4.897 0 0 1 1.383-.347c.251-.024.722-.024 1.414 0 .666.023 1.398.073 2.195.151.328.032.597.148.805.347.411.394.789.67 1.133.83.171.08.29.167.358.263l.078.107a6.33 6.33 0 0 1 1.153 2.016c.255.724.288 1.425.098 2.102-.13.46-.388.92-.774 1.38a6.23 6.23 0 0 1-1.186 1.084c-.181.128-.189.251-.024.37l.078.056c.71.562 1.165 1.229 1.366 2a6.902 6.902 0 0 1-.303 4.482 3.26 3.26 0 0 1-1.041 1.362c-.883.68-1.762 1.207-2.636 1.584-.324.139-.7.22-1.128.245l-.382.021c-.728.06-1.344.153-1.845.28-.12.03-.159.097-.119.2a.052.052 0 0 1 .003.018.049.049 0 0 1-.005.016.036.036 0 0 1-.027.02 3.956 3.956 0 0 1-2.773-.48.081.081 0 0 1-.04-.075c.006-.324-.134-.527-.418-.608-.14-.04-.23-.08-.269-.12-.097-.1-.1-.215-.008-.344l.121-.172Zm5.68-13.328c.013-.032.051-.041.114-.027.318.075.636.15.954.227.089.021.121-.002.099-.072a.213.213 0 0 0-.144-.136 9.004 9.004 0 0 0-2.662-.326.153.153 0 0 0-.126.073c-.179.298-.283.6-.311.906-.027.297-.064.592-.113.885-.014.087-.062.22-.143.398-.101.22-.145.488-.132.806a.1.1 0 0 0 .031.069c.02.018.045.028.072.027a8.128 8.128 0 0 0 2.172-.342 7.319 7.319 0 0 1 1.229-.267.358.358 0 0 0 .287-.2c.174-.338.212-.649.114-.934-.077-.228-.268-.439-.572-.633a3.561 3.561 0 0 0-.826-.39.072.072 0 0 1-.038-.027.046.046 0 0 1-.007-.02.028.028 0 0 1 .002-.017Zm1.123 6.648c-.461-.376-.96-.59-1.496-.64-.261-.025-.654.015-1.181.12-.389.076-.777.16-1.164.25a.164.164 0 0 0-.078.045.152.152 0 0 0-.04.08 13.43 13.43 0 0 1-.143.66c-.022.095-.07.14-.144.137a.145.145 0 0 0-.151.137 31.659 31.659 0 0 1-.428 3.842.094.094 0 0 0 .003.047c.004.015.012.03.022.041a.109.109 0 0 0 .085.036 32.998 32.998 0 0 1 2.158-.043c.507.005.995-.086 1.464-.276a17.47 17.47 0 0 0 1.472-.68.84.84 0 0 0 .229-.29c.178-.35.349-.704.51-1.064a.676.676 0 0 0 .051-.4 3.177 3.177 0 0 0-1.169-2.002ZM150.033 74.154a.128.128 0 0 1-.099-.132c.021-.417.067-.806.136-1.165.066-.338.116-.68.149-1.022.041-.42.087-.761.14-1.023.19-.956.301-1.549.333-1.78.248-1.783.438-2.942.571-3.478a51.24 51.24 0 0 0 1.063-5.667c.036-.278.08-.592.133-.943.031-.21.061-.42.088-.63.032-.237.079-.443.142-.617.162-.447.377-.901.645-1.364a.105.105 0 0 1 .031-.034.099.099 0 0 1 .041-.017l1.636-.278a.261.261 0 0 1 .115.006.28.28 0 0 1 .104.056c.283.241.453.54.508.898.012.08.015.41.009.989a18.88 18.88 0 0 1-.199 2.523 25.863 25.863 0 0 0-.225 2.238c-.007.117.046.189.161.215a24.55 24.55 0 0 0 1.856.344c.293.042.669.173 1.129.392.497.237.887.53 1.171.877.102.126.183.219.241.278.136.138.22.23.25.274.084.122.264.49.54 1.104.204.454.307.886.31 1.294.005.63-.029 1.257-.104 1.882-.079.656-.315 1.348-.709 2.074a2.846 2.846 0 0 1-.387.562c-.018.018-.183.17-.498.454-.364.33-.727.609-1.09.837-.879.554-1.842.986-2.888 1.297l-.615.216a1.83 1.83 0 0 1-.981.088c-.982-.2-1.79-.327-2.423-.38a1.773 1.773 0 0 1-.516-.125 5.112 5.112 0 0 0-.768-.243Zm3.599-2.575c.281.02.588-.013.921-.101.606-.16 1.196-.367 1.769-.62.389-.17.665-.434.829-.79.403-.877.433-1.784.092-2.72-.227-.623-.667-.988-1.321-1.095-.317-.052-.659-.09-1.028-.115a.145.145 0 0 0-.149.106 88.626 88.626 0 0 0-1.262 5.135c-.026.123.024.19.149.2ZM203.862 74.112c.079.025.125.012.137-.039.012-.046-.003-.06-.045-.042l-.092.04c-.127.078-.186.214-.178.408.007.148-.04.202-.138.162a.332.332 0 0 1-.112-.109c-.094-.124-.215-.092-.365.099a.103.103 0 0 1-.084.039.083.083 0 0 1-.042-.014.071.071 0 0 1-.027-.033l-.155-.354a.558.558 0 0 0-.026-.051.103.103 0 0 0-.023-.027c-.144-.098-.249-.039-.315.179a.138.138 0 0 1-.077.083.163.163 0 0 1-.12 0l-.598-.233a14.08 14.08 0 0 0-.013-2.001c-.02-.248-.026-.487-.02-.72.007-.24.009-.48.007-.72a9.633 9.633 0 0 1 .114-1.499c.047-.302.087-.6.119-.895.022-.2.05-.399.084-.597.052-.306.085-.504.097-.594.1-.702.195-1.405.287-2.108.14-1.087.325-2.165.552-3.236.126-.594.235-1.206.327-1.834a.13.13 0 0 0-.003-.047.115.115 0 0 0-.108-.083 18.535 18.535 0 0 1-1.907-.122.317.317 0 0 1-.238-.159.14.14 0 0 0-.033-.035.1.1 0 0 0-.04-.018l-.581-.11a.207.207 0 0 1-.163-.166 13.545 13.545 0 0 1-.073-.567c-.031-.284.01-.887.123-1.81a.072.072 0 0 1 .016-.039.081.081 0 0 1 .036-.024 9.583 9.583 0 0 1 1.444-.335 34.911 34.911 0 0 1 4.194-.42c.823-.03 1.477-.037 1.963-.02.993.037 1.977.179 2.953.426a.181.181 0 0 1 .069.034.181.181 0 0 1 .05.06c.085.173.132.36.138.558a8.002 8.002 0 0 1-.093 1.499.504.504 0 0 1-.219.346c-.44.304-.932.49-1.477.56-.715.091-1.408.14-2.078.146a.213.213 0 0 0-.205.166c-.111.514-.185.991-.221 1.431a37.56 37.56 0 0 1-.566 4.09 5.081 5.081 0 0 0-.043.25 41.73 41.73 0 0 1-.824 4.31c-.179.728-.341 1.46-.485 2.195a13.482 13.482 0 0 1-.708 2.445c-.036.088-.089.113-.157.073a.169.169 0 0 1-.079-.112.72.72 0 0 1 .021-.425ZM186.248 73.572a.205.205 0 0 0-.119-.192c.091-.827.243-1.643.455-2.448a.166.166 0 0 1 .05-.08.539.539 0 0 0 .201-.41c.002-.14.014-.28.035-.417.043-.285.027-.507-.048-.665a.363.363 0 0 1-.015-.292 6.93 6.93 0 0 0 .362-1.486l.115-.813a3.82 3.82 0 0 0 .037-.615 2.79 2.79 0 0 1 .043-.607c.25-1.219.498-2.438.744-3.657l.142-.77c.07-.384.155-.73.255-1.037.091-.28.157-.551.199-.813.058-.363.111-.635.159-.815.131-.493.236-.991.315-1.495a.153.153 0 0 1 .042-.083c.168-.165.351-.304.552-.417.17-.096.387-.162.649-.198a16.085 16.085 0 0 1 2.745-.154 67.03 67.03 0 0 1 3.3.26c.763.072 1.527.108 2.294.108.016 0 .031.004.044.011a.072.072 0 0 1 .03.03c.046.084.031.15-.044.195a.379.379 0 0 1-.166.04c-.216.012-.432.026-.648.043a.104.104 0 0 0-.087.146c.117.258.06.301-.173.131a.393.393 0 0 0-.274-.073c-.34.038-.624.108-.852.21a.126.126 0 0 0-.064.066c-.108.264-.052.517.167.757.112.122.08.2-.096.234l-.459.089c-.042.008-.048.027-.02.058.036.04.097.06.183.056.199-.005.308.085.327.27a.058.058 0 0 1-.01.04.066.066 0 0 1-.034.026 1.281 1.281 0 0 1-.474.076 19.607 19.607 0 0 0-1.957.003.091.091 0 0 0-.046.015.047.047 0 0 0-.02.034c-.003.037.034.057.11.059.176.005.224.04.144.103a.19.19 0 0 1-.1.036 27.17 27.17 0 0 1-1.904.101.122.122 0 0 0-.08.034.122.122 0 0 0-.036.078 13.66 13.66 0 0 1-.23 1.873 44.912 44.912 0 0 0-.321 1.785c-.068.424-.1.741-.095.951a.055.055 0 0 0 .016.035.05.05 0 0 0 .035.013 49.607 49.607 0 0 1 5.171.203c.15.014.15.047 0 .099l-.54.186a.106.106 0 0 0-.039.025.103.103 0 0 0-.024.04c-.004.015-.006.03-.004.047a.118.118 0 0 0 .017.044c.382.566.392 1.14.03 1.723a2.42 2.42 0 0 0-.274.658c-.03.114-.079.227-.147.336a.663.663 0 0 1-.262.237 2.495 2.495 0 0 1-1.408.267 53.135 53.135 0 0 0-3.163-.2.066.066 0 0 0-.04.011.064.064 0 0 0-.023.034c-.143.49-.254.987-.331 1.492-.144.941-.274 1.883-.391 2.826a.054.054 0 0 0 .002.028c.003.01.008.018.014.025a.085.085 0 0 0 .023.017.072.072 0 0 0 .028.005c.4-.001.788-.005 1.165-.011.203-.004.591-.021 1.165-.05.589-.03 1.009-.026 1.258.012a6.37 6.37 0 0 0 1.771.009.177.177 0 0 1 .195.14c.034.165-.038.398-.216.7a.382.382 0 0 0-.054.179c-.022.41-.086.796-.192 1.158a.778.778 0 0 1-.337.45 1.73 1.73 0 0 1-.474.211 2.207 2.207 0 0 1-.508.052c-2.499.036-4.997.035-7.496-.003a.055.055 0 0 1-.036-.014.066.066 0 0 1-.019-.036l-.239-1.329ZM124.93 67.723c.085-.084.171-.208.258-.372.388-.727.96-1.84 1.717-3.337a54.04 54.04 0 0 1 2.78-4.836c.542-.842.821-1.274.837-1.297.305-.421.658-.8 1.057-1.14.006-.004.09-.084.255-.24.176-.165.387-.276.633-.33.251-.055.426-.012.526.128a.336.336 0 0 0 .393.14.97.97 0 0 1 .714.054c.136.067.254.029.356-.116a.084.084 0 0 1 .031-.027.084.084 0 0 1 .109.036c.111.209.189.234.235.075a.547.547 0 0 1 .061-.154c.095-.137.172-.116.234.062l.052.15c.331.858.409 1.751.235 2.68a36.65 36.65 0 0 1-.176.882 15.88 15.88 0 0 1-.23.868 19.01 19.01 0 0 0-.6 3.133 20.11 20.11 0 0 1-.434 2.395 56.598 56.598 0 0 0-.556 2.613c-.289 1.539-.681 3-1.175 4.382-.181.505-.46.971-.839 1.4a.15.15 0 0 1-.081.047c-.67.15-1.253.144-1.748-.018-.313-.102-.489-.306-.527-.613-.011-.086.004-.332.045-.737.084-.844.226-1.678.427-2.503.102-.42.184-.844.246-1.27.08-.55.157-.974.23-1.27.214-.86.448-1.716.7-2.566.094-.315.17-.661.229-1.038.069-.44.142-.787.22-1.043.09-.296.137-.555.141-.778 0-.034-.012-.04-.036-.016a6.178 6.178 0 0 0-.89 1.113c-1.504 2.321-2.54 4.016-3.11 5.084a144.83 144.83 0 0 0-2.38 4.686 6.672 6.672 0 0 1-.597.979.086.086 0 0 1-.034.03.091.091 0 0 1-.043.01c-.823.006-1.645.008-2.466.007-.302 0-.513-.032-.634-.094-.223-.112-.347-.312-.373-.6l-.017-.185a57.256 57.256 0 0 0-.081-.591 6.306 6.306 0 0 1 .007-1.856c.013-.088.122-.586.326-1.494l.228-.996c.077-.337.146-.67.206-.999.5-2.746.815-4.392.945-4.938.312-1.309.588-2.625.827-3.949.095-.521.206-.932.336-1.232.224-.519.515-1 .872-1.447a.135.135 0 0 1 .08-.049c.102-.019.205-.027.31-.026l.204-.007a.4.4 0 0 1 .384.217c.068.116.117.109.148-.023.065-.28.269-.422.609-.428a.274.274 0 0 1 .28.182c.094.221.126.47.098.745l-.036.36-.027.468a5.177 5.177 0 0 0-.001.467c.019.447.015.762-.011.944-.087.586-.259 1.463-.516 2.63-.169.77-.302 1.411-.4 1.922-.19 1-.375 2.002-.555 3.004a3.091 3.091 0 0 0-.046.706c.001.035.014.04.038.016ZM161.679 74.583a.667.667 0 0 0 .055-.439c-.005-.017-.01-.016-.015.003l-.027.092c-.01-.233-.011-.887-.003-1.963.003-.564.031-1.073.081-1.528l.231-1.508c.73-4.778 1.191-7.732 1.38-8.863.177-1.051.493-2.058.948-3.021.162-.342.374-.67.635-.985a.319.319 0 0 1 .255-.114c.47.016.962-.01 1.475-.079a.101.101 0 0 1 .111.07c.081.262.268.429.563.501a.102.102 0 0 1 .076.122 49.295 49.295 0 0 0-.547 3.099c-.044.298-.117.948-.221 1.949-.079.756-.177 1.51-.292 2.262a8.435 8.435 0 0 1-.323 1.403.732.732 0 0 0-.041.23c.003.104.003.16.002.167a25.733 25.733 0 0 1-.242 1.824 70.62 70.62 0 0 1-1.32 5.963c-.099.37-.24.723-.423 1.06a.102.102 0 0 1-.031.035.09.09 0 0 1-.042.016l-.936.1a.141.141 0 0 1-.099-.027.154.154 0 0 1-.06-.088c-.065-.259-.154-.301-.267-.129-.106.163-.222.227-.349.19a1.214 1.214 0 0 1-.574-.342ZM51.02 74.273a.302.302 0 0 0-.112.229c-.01.142-.063.19-.159.143a.715.715 0 0 1-.121-.107c-.1-.1-.185-.078-.258.068a.134.134 0 0 1-.065.065c-.072.03-.13.019-.173-.03-.025-.028-.04-.075-.048-.143-.051-.484-.2-.492-.45-.022a.103.103 0 0 1-.066.051.125.125 0 0 1-.089-.01l-.536-.28a.277.277 0 0 1-.1-.086.225.225 0 0 1-.042-.117 30.773 30.773 0 0 1-.034-2.544c.016-.567.076-1.217.181-1.952l.663-4.623c.229-1.593.524-3.173.885-4.742a.074.074 0 0 0-.037-.082.072.072 0 0 0-.03-.008 211.64 211.64 0 0 1-1.726-.086 1.27 1.27 0 0 1-.451-.115c-.2-.09-.42-.173-.664-.247a.387.387 0 0 1-.254-.217.816.816 0 0 1-.04-.309c.003-.583.038-1.2.105-1.852a.243.243 0 0 1 .175-.208 15.05 15.05 0 0 1 2.148-.433c.288-.036.939-.096 1.954-.18a54.8 54.8 0 0 1 1.393-.097c.728-.04 1.192-.063 1.393-.066a11.466 11.466 0 0 1 3.466.479.238.238 0 0 1 .166.177c.056.252.075.485.057.7-.034.387-.07.773-.111 1.16-.017.163-.07.287-.158.37-.023.021-.13.084-.325.188a4.49 4.49 0 0 1-.799.333c-.22.068-.502.117-.846.148-.542.047-1.1.086-1.674.117a.165.165 0 0 0-.155.15 110.815 110.815 0 0 1-.608 4.969 1.393 1.393 0 0 1-.08.304 1.175 1.175 0 0 0-.08.3c-.067.685-.156 1.3-.267 1.842-.07.336-.213.986-.432 1.95a101.8 101.8 0 0 0-.387 1.924c-.17.867-.39 1.722-.658 2.564-.007.02-.055.132-.146.335-.041.095-.08.211-.113.348-.022.088-.072.111-.15.069a.096.096 0 0 1-.05-.073l-.048-.333c-.005-.034-.02-.041-.045-.021Zm.28-.133c.098-.02.108-.053.03-.1a.117.117 0 0 0-.09-.011c-.097.026-.105.06-.024.1a.126.126 0 0 0 .084.01ZM69.27 56.676c.028.046.07.062.124.05a.936.936 0 0 1 .53.032c.025.151-.013.228-.113.23a6.74 6.74 0 0 0-.79.066c-.062.01-.103.028-.122.055-.03.043-.02.098.028.166.059.081.038.117-.061.106a.632.632 0 0 1-.345-.136.12.12 0 0 0-.04-.023.099.099 0 0 0-.043-.004 2.997 2.997 0 0 0-.772.213.129.129 0 0 0-.065.065c-.123.287-.077.541.139.761.121.124.096.199-.076.225l-.454.07a.11.11 0 0 0-.047.02.06.06 0 0 0-.025.034c-.008.032.016.053.07.063.163.028.322.072.476.132.114.045.118.098.012.16l-.445.263a.07.07 0 0 1-.04.01.074.074 0 0 1-.038-.015.816.816 0 0 0-.376-.16 7.646 7.646 0 0 0-.4-.028c-.329-.019-.684.04-1.067.177a.813.813 0 0 1-.096.028 8.083 8.083 0 0 1-1.719.184.135.135 0 0 0-.134.12 72.372 72.372 0 0 1-.728 4.49.086.086 0 0 0 .018.07.085.085 0 0 0 .066.032c1.364-.01 2.684.025 3.959.103.373.023.741.078 1.105.166.136.033.137.07.003.11l-.466.144a.096.096 0 0 0-.062.056.097.097 0 0 0 .006.083c.206.363.284.721.231 1.076-.016.111-.087.277-.212.497-.108.193-.19.397-.243.612-.06.24-.122.403-.188.488-.19.249-.461.385-.814.41a13.91 13.91 0 0 1-2.257-.03c-.53-.05-1.052-.063-1.564-.037a.166.166 0 0 0-.145.1 6.013 6.013 0 0 0-.451 1.809l-.075.844a50.752 50.752 0 0 1-.215 1.505.079.079 0 0 0 .042.082c.01.005.02.008.031.008.482.02.958.024 1.429.014.046-.001.416-.023 1.112-.066.458-.028.83-.02 1.113.023a5.22 5.22 0 0 0 1.707-.01c.149-.027.195.03.138.17-.099.247-.183.491-.252.735-.028.1-.058.291-.09.573a2.762 2.762 0 0 1-.13.571 1.073 1.073 0 0 1-.38.53 1.194 1.194 0 0 1-.699.252c-2.396.029-4.9.036-7.511.023a.128.128 0 0 1-.126-.106 8.13 8.13 0 0 0-.284-1.16 1.132 1.132 0 0 1-.052-.47c.122-1.144.326-2.274.613-3.39a1.41 1.41 0 0 0 .017-.41c-.008-.138.007-.272.046-.398.158-.52.255-1.053.29-1.597.015-.22.074-.413.177-.581a.26.26 0 0 0 .036-.177c-.079-.518-.072-.977.02-1.376.353-1.512.559-2.46.616-2.846.094-.629.181-1.076.26-1.34.294-.975.46-1.697.5-2.168.057-.671.182-1.233.374-1.687.16-.374.46-.602.904-.685a15.644 15.644 0 0 1 4.488-.155.38.38 0 0 1 .232.093.136.136 0 0 0 .081.04c1.072.082 2.145.121 3.22.116ZM58.79 66.21c.01 0 .02-.015.026-.04a.355.355 0 0 0 .007-.097.35.35 0 0 0-.016-.095c-.009-.025-.02-.039-.03-.038-.01 0-.02.015-.027.04a.355.355 0 0 0-.007.097c.002.036.008.07.016.095.01.025.02.039.03.038ZM114.628 74.14a.49.49 0 0 0-.315-.094.157.157 0 0 0-.074 0c-.066-.038-.107-.015-.124.07a7.69 7.69 0 0 0-.07.428c-.016.113-.068.133-.157.062-.205-.165-.331-.175-.379-.029a.189.189 0 0 1-.047.082c-.115.1-.193.064-.233-.11l-.069-.312a.069.069 0 0 0-.023-.035.06.06 0 0 0-.039-.013c-.215.003-.326.068-.333.195a.095.095 0 0 1-.016.049.103.103 0 0 1-.038.035.123.123 0 0 1-.107.007l-.629-.245a.076.076 0 0 1-.034-.024.059.059 0 0 1-.013-.035l.001-.472c-.014-.63.004-1.26.054-1.89.043-.53.058-1.061.044-1.594.078-.862.187-1.72.326-2.576.254-1.561.486-3.126.694-4.694a22.33 22.33 0 0 1 .559-2.797.063.063 0 0 0 .001-.023.055.055 0 0 0-.028-.037.054.054 0 0 0-.023-.006 65.537 65.537 0 0 1-1.991-.098c-.1-.006-.202-.07-.306-.189a.173.173 0 0 0-.078-.052 8.163 8.163 0 0 0-.495-.141c-.186-.047-.273-.163-.263-.349l.009-.205c-.02-.636.01-1.24.089-1.81a.259.259 0 0 1 .194-.228 9.668 9.668 0 0 1 2.077-.411c2.005-.16 3.452-.249 4.342-.27a22.559 22.559 0 0 1 2.061.045c.653.044 1.26.16 1.822.35a.253.253 0 0 1 .169.208c.08.703.081 1.329.003 1.878a.466.466 0 0 1-.192.319 3.942 3.942 0 0 1-.679.394 3.028 3.028 0 0 1-.746.213c-.711.12-1.457.178-2.238.175a.108.108 0 0 0-.108.092 42.88 42.88 0 0 0-.208 1.605c-.102.923-.163 1.46-.182 1.608a78.888 78.888 0 0 1-1.355 7.44c-.198.857-.393 1.716-.582 2.576-.069.31-.159.612-.271.908ZM81.588 59.287l.125.125a.368.368 0 0 1 .09.148c.274.85.34 1.768.2 2.756a8.954 8.954 0 0 1-.465 1.873 6.62 6.62 0 0 1-.93 1.67A8.5 8.5 0 0 1 78.247 68a7.176 7.176 0 0 1-1.793.78c-.7.2-1.416.325-2.15.372-.092.006-.176.02-.253.042a7.21 7.21 0 0 0-.247.073.244.244 0 0 0-.167.18 88.3 88.3 0 0 0-.37 1.759 16.688 16.688 0 0 1-.594 2.217 2.407 2.407 0 0 1-.195.417c-.069.119-.17.233-.302.341-.188.153-.39.321-.608.504a.15.15 0 0 1-.142.027 2.938 2.938 0 0 0-.63-.144l-.304-.006c-.326-.006-.576-.123-.75-.35-.12-.157-.19-.4-.21-.727a5.348 5.348 0 0 1 .031-1.087c.254-1.688.467-3.38.638-5.079.054-.532.176-1.522.368-2.968.157-1.188.335-2.221.535-3.101l.332-1.25c.13-.49.218-.929.262-1.316.05-.454.122-.894.213-1.32a.26.26 0 0 1 .157-.186c.29-.117.564-.219.827-.305.259-.084.546-.136.861-.155.311-.018.622-.035.933-.05.187-.008.498-.03.933-.066a8.012 8.012 0 0 1 1.473-.004c.727.08 1.455.311 2.183.696.219.115.466.276.74.484.384.29.618.472.702.543.262.228.495.482.697.763.055.077.112.145.17.202Zm-7.251 5.156c-.047.404-.07.809-.07 1.215a.053.053 0 0 0 .05.052 5.59 5.59 0 0 0 1.445-.117 2.03 2.03 0 0 0 .672-.259c.196-.125.382-.283.558-.473.837-.905 1.223-1.966 1.16-3.183-.022-.426-.172-.735-.449-.927-.33-.228-.888-.46-1.674-.694a2.73 2.73 0 0 0-1.197-.104c-.123.019-.191.09-.205.213a25.74 25.74 0 0 0-.164 2.395c-.012.63-.055 1.257-.126 1.882Z" fill="#C8061B"/></svg><svg fill="none" viewBox="0 0 21 21" id="loupe" xmlns="http://www.w3.org/2000/svg"><path fill-rule="evenodd" clip-rule="evenodd" d="M8.671.027a8.331 8.331 0 0 1 6.205 13.89l5.76 5.761-1.231 1.232-5.822-5.822A8.331 8.331 0 1 1 8.67.027Zm0 14.92a6.589 6.589 0 1 0 0-13.178 6.589 6.589 0 0 0 0 13.178Z" fill="#3F3740" fill-opacity=".6"/></svg><svg fill="none" viewBox="0 0 16 27" id="ok" xmlns="http://www.w3.org/2000/svg"><path d="M7.609 4.892c.734 0 1.438.293 1.957.815a2.787 2.787 0 0 1 0 3.932 2.761 2.761 0 0 1-3.915 0 2.788 2.788 0 0 1 0-3.932 2.761 2.761 0 0 1 1.958-.815Zm0 9.486c3.685 0 6.673-3.01 6.673-6.705 0-3.695-2.995-6.704-6.673-6.704S.935 3.978.935 7.673s2.996 6.705 6.674 6.705Zm2.7 5.478a12.465 12.465 0 0 0 3.867-1.6 1.96 1.96 0 0 0 .862-1.23 1.973 1.973 0 0 0-.782-2.038 1.951 1.951 0 0 0-2.173-.054 8.456 8.456 0 0 1-8.994 0 1.953 1.953 0 0 0-2.974 1.325 1.974 1.974 0 0 0 .881 1.997 12.173 12.173 0 0 0 3.868 1.6l-3.716 3.756a1.971 1.971 0 0 0 0 2.78 1.953 1.953 0 0 0 2.768 0l3.67-3.695 3.67 3.688a1.956 1.956 0 0 0 2.133.426 1.957 1.957 0 0 0 1.06-1.064 1.974 1.974 0 0 0-.425-2.143l-3.738-3.756" fill="#3F3740" fill-opacity=".3"/></svg><svg fill="none" viewBox="0 0 26 30" id="play" xmlns="http://www.w3.org/2000/svg"><path d="M25.73 15 .637 29.488V.512L25.73 15Z" fill="#C8061B"/></svg><svg fill="none" viewBox="0 0 23 20" id="tg" xmlns="http://www.w3.org/2000/svg"><path fill-rule="evenodd" clip-rule="evenodd" d="M20.39.7a1.642 1.642 0 0 1 2.256 1.78l-2.482 15.058c-.241 1.453-1.835 2.286-3.167 1.562-1.114-.605-2.77-1.538-4.258-2.51-.744-.488-3.024-2.048-2.744-3.158.24-.949 4.072-4.515 6.261-6.635.86-.833.467-1.314-.547-.547-2.521 1.902-6.566 4.795-7.903 5.61-1.18.717-1.795.84-2.531.717-1.342-.223-2.587-.569-3.602-.99C.3 11.017.367 9.13 1.672 8.58L20.389.7Z" fill="#3F3740" fill-opacity=".3"/></svg><svg fill="none" viewBox="0 0 24 16" id="vk" xmlns="http://www.w3.org/2000/svg"><path d="M14.56 7.683c-.437-.178-.437-.857-.464-1.33-.11-1.684.437-4.256-.219-5.35-.464-.65-2.705-.59-4.07-.501-.383.06-.847.147-1.175.325-.328.178-.655.473-.655.739 0 .384.82.325 1.12.827.327.533.327 1.685.327 2.63 0 1.094-.164 2.543-.573 2.601-.629.03-.984-.65-1.311-1.153a20.17 20.17 0 0 1-1.804-3.37c-.245-.62-.383-1.3-.738-1.566-.546-.414-1.53-.443-2.486-.414-.874.03-2.13-.089-2.377.473-.191.62.219 1.212.438 1.715 1.12 2.63 2.321 4.936 3.797 7.122 1.366 2.04 2.65 3.665 5.163 4.522.71.237 3.824.917 4.453 0 .218-.354.164-1.153.273-1.744.11-.591.246-1.182.765-1.211.437-.03.683.384.956.68.301.325.547.59.765.887.52.562 1.066 1.33 1.721 1.626.902.414 2.295.296 3.606.236 1.066-.03 1.83-.266 1.913-.946.055-.532-.492-1.3-.82-1.744-.82-1.093-1.202-1.418-2.131-2.424-.41-.443-.93-.916-.93-1.448-.026-.325.22-.62.438-.946.956-1.536 1.912-2.63 2.786-4.226.246-.473.82-1.566.602-2.099-.246-.591-1.612-.414-2.46-.414-1.092 0-2.512-.09-2.786.147-.52.384-.738 1.006-.983 1.597-.547 1.36-1.285 2.748-2.05 3.783-.273.355-.791 1.093-1.092.975v.001Z" fill="#3F3740" fill-opacity=".3"/></svg><svg fill="none" viewBox="0 0 28 20" id="youtube" xmlns="http://www.w3.org/2000/svg"><path d="m11.235 13.931 6.856-3.963-6.856-3.962v7.925ZM26.505 3.59c.172.62.29 1.453.37 2.51.092 1.056.132 1.967.132 2.76l.079 1.11c0 2.892-.211 5.019-.581 6.38-.33 1.188-1.097 1.954-2.285 2.285-.621.171-1.757.29-3.5.37a88 88 0 0 1-4.743.131l-2.1.08c-5.535 0-8.982-.212-10.343-.581-1.188-.33-1.955-1.097-2.285-2.286-.172-.62-.29-1.453-.37-2.51a31.78 31.78 0 0 1-.132-2.76l-.079-1.11c0-2.892.211-5.019.581-6.38.33-1.188 1.097-1.954 2.285-2.285.621-.171 1.757-.29 3.5-.37a88.036 88.036 0 0 1 4.743-.132l2.1-.079c5.534 0 8.982.212 10.343.581 1.188.33 1.954 1.097 2.285 2.286Z" fill="#3F3740" fill-opacity=".3"/></svg></svg>