<svg width="23" height="20" fill="none" xmlns="http://www.w3.org/2000/svg"><path fill-rule="evenodd" clip-rule="evenodd" d="M20.39.7a1.642 1.642 0 012.256 1.78l-2.482 15.058c-.241 1.453-1.835 2.286-3.167 1.562-1.114-.605-2.77-1.538-4.258-2.51-.744-.488-3.024-2.048-2.744-3.158.24-.949 4.072-4.515 6.261-6.635.86-.833.467-1.314-.547-.547-2.521 1.902-6.566 4.795-7.903 5.61-1.18.717-1.795.84-2.531.717-1.342-.223-2.587-.569-3.602-.99C.3 11.017.367 9.13 1.672 8.58L20.389.7z" fill="#3F3740" fill-opacity=".3"/></svg>