<svg width="26" height="16" fill="none" xmlns="http://www.w3.org/2000/svg"><path d="M.424 14.008l-.071.07.07.071 1.09 1.089.07.07.07-.07 7.082-7.086.07-.07-.07-.072L1.654.93 1.583.858l-.07.07-1.09 1.089-.07.07.07.071 5.925 5.925-5.924 5.924z" fill="#C8061B" stroke="#C8061B" stroke-width=".2"/><path d="M8.596 14.008l-.071.07.07.071 1.09 1.089.07.07.07-.07 7.082-7.086.07-.07-.07-.072L9.826.93 9.755.858l-.07.07-1.09 1.089-.07.07.07.071 5.925 5.925-5.924 5.924z" fill="#C8061B" stroke="#C8061B" stroke-width=".2"/><path d="M16.764 14.008l-.071.07.07.071 1.09 1.089.07.07.07-.07 7.082-7.086.07-.07-.07-.072L17.994.93l-.071-.071-.07.07-1.09 1.089-.07.07.07.071 5.925 5.925-5.924 5.924z" fill="#C8061B" stroke="#C8061B" stroke-width=".2"/></svg>