<svg width="24" height="16" fill="none" xmlns="http://www.w3.org/2000/svg"><path d="M14.56 7.683c-.437-.178-.437-.857-.464-1.33-.11-1.684.437-4.256-.219-5.35-.464-.65-2.705-.59-4.07-.501-.383.06-.847.147-1.175.325-.328.178-.655.473-.655.739 0 .384.82.325 1.12.827.327.533.327 1.685.327 2.63 0 1.094-.164 2.543-.573 2.601-.629.03-.984-.65-1.311-1.153a20.17 20.17 0 01-1.804-3.37c-.245-.62-.383-1.3-.738-1.566-.546-.414-1.53-.443-2.486-.414-.874.03-2.13-.089-2.377.473-.191.62.219 1.212.438 1.715 1.12 2.63 2.321 4.936 3.797 7.122 1.366 2.04 2.65 3.665 5.163 4.522.71.237 3.824.917 4.453 0 .218-.354.164-1.153.273-1.744.11-.591.246-1.182.765-1.211.437-.03.683.384.956.68.301.325.547.59.765.887.52.562 1.066 1.33 1.721 1.626.902.414 2.295.296 3.606.236 1.066-.03 1.83-.266 1.913-.946.055-.532-.492-1.3-.82-1.744-.82-1.093-1.202-1.418-2.131-2.424-.41-.443-.93-.916-.93-1.448-.026-.325.22-.62.438-.946.956-1.536 1.912-2.63 2.786-4.226.246-.473.82-1.566.602-2.099-.246-.591-1.612-.414-2.46-.414-1.092 0-2.512-.09-2.786.147-.52.384-.738 1.006-.983 1.597-.547 1.36-1.285 2.748-2.05 3.783-.273.355-.791 1.093-1.092.975v.001z" fill="#3F3740" fill-opacity=".3"/></svg>