<svg width="28" height="20" fill="none" xmlns="http://www.w3.org/2000/svg"><path d="M11.235 13.931l6.856-3.963-6.856-3.962v7.925zM26.505 3.59c.172.62.29 1.453.37 2.51.092 1.056.132 1.967.132 2.76l.079 1.11c0 2.892-.211 5.019-.581 6.38-.33 1.188-1.097 1.954-2.285 2.285-.621.171-1.757.29-3.5.37a88 88 0 01-4.743.131l-2.1.08c-5.535 0-8.982-.212-10.343-.581-1.188-.33-1.955-1.097-2.285-2.286-.172-.62-.29-1.453-.37-2.51a31.78 31.78 0 01-.132-2.76l-.079-1.11c0-2.892.211-5.019.581-6.38.33-1.188 1.097-1.954 2.285-2.285.621-.171 1.757-.29 3.5-.37a88.036 88.036 0 014.743-.132l2.1-.079c5.534 0 8.982.212 10.343.581 1.188.33 1.954 1.097 2.285 2.286z" fill="#3F3740" fill-opacity=".3"/></svg>